<svg xmlns="http://www.w3.org/2000/svg" width="117" height="74" viewBox="0 0 117 74">
  <g id="Group_24" data-name="Group 24" transform="translate(-375 -627)">
    <path id="Path_7" data-name="Path 7" d="M15,0h87a15,15,0,0,1,15,15V59a15,15,0,0,1-15,15H15A15,15,0,0,1,0,59V15A15,15,0,0,1,15,0Z" transform="translate(375 627)" fill="#fff"/>
    <path id="Path_9" data-name="Path 9" d="M40.48,123.02h5.795l6.587,14.9v-14.9h6.348L64.3,133.7l4.689-10.684H75.3v15.768H71.457l-.031-12.356-5.6,12.356H62.385l-5.634-12.356v12.356H48.845l-1.5-3.535h-8.1l-1.5,3.532H33.516Zm38.337,0H94.444l4.78,5.163,4.934-5.163h4.78l-7.262,7.925,7.262,7.834h-5l-4.78-5.223L94.2,138.779H78.817V123.02ZM43.3,125.688l-2.668,6.3h5.333Zm39.377.6v2.879H91.2v3.208H82.676v3.143h9.562l4.443-4.629-4.255-4.6H82.676Z" transform="translate(362.484 532.98)" fill="#266bcb"/>
  </g>
</svg>
