<svg id="Group_24" data-name="Group 24" xmlns="http://www.w3.org/2000/svg" width="47.432" height="30" viewBox="0 0 47.432 30">
  <path id="Path_7" data-name="Path 7" d="M6.081,0h35.27a6.081,6.081,0,0,1,6.081,6.081V23.919A6.081,6.081,0,0,1,41.351,30H6.081A6.081,6.081,0,0,1,0,23.919V6.081A6.081,6.081,0,0,1,6.081,0Z" transform="translate(0 0)" fill="#fff"/>
  <path id="Path_9" data-name="Path 9" d="M36.253,123.02h2.278l2.589,6.373V123.02h2.5l2,4.57,1.843-4.57h2.483v6.744H48.431l-.012-5.285-2.2,5.285H44.865l-2.215-5.285v5.285H39.542l-.589-1.512H35.769l-.588,1.511H33.516Zm15.071,0h6.143l1.879,2.208,1.939-2.208h1.879l-2.855,3.39,2.855,3.351H61.2l-1.879-2.234-1.949,2.234H51.324v-6.74Zm-13.963,1.141-1.049,2.693h2.1Zm15.48.255v1.231h3.351v1.372H52.841v1.344H56.6l1.747-1.98-1.673-1.969H52.841Z" transform="translate(-24.534 -111.438)" fill="#266bcb"/>
</svg>
