<svg xmlns="http://www.w3.org/2000/svg" width="117" height="74" viewBox="0 0 117 74">
  <g id="Group_93" data-name="Group 93" transform="translate(-375 -1083)">
    <path id="Path_47" data-name="Path 47" d="M15,0h87a15,15,0,0,1,15,15V59a15,15,0,0,1-15,15H15A15,15,0,0,1,0,59V15A15,15,0,0,1,15,0Z" transform="translate(375 1083)" fill="#fff"/>
    <g id="Group_35" data-name="Group 35" transform="translate(166.351 24.21)">
      <path id="Path_41" data-name="Path 41" d="M443.513,1073.574l7.432-14.343s.3-1.077,0-1.449a2.137,2.137,0,0,0-.892-.557h9.438a1.444,1.444,0,0,1,1.226,1.449c.149,1.375,1.236,16.656,1.236,16.656s.026,1.73.729,2.212.833.563.833.563h-8.3a.876.876,0,0,1-.947-.778,28.884,28.884,0,0,1,0-3.687h-4.381l-1.471,2.909s-.271.676.169,1.032.693.524.693.524h-6.968s-.93-.085-.575-1.083A33.759,33.759,0,0,1,443.513,1073.574Z" transform="translate(-212 27.708)" fill="#2c2d6d"/>
      <path id="Path_42" data-name="Path 42" d="M515.062,1071.4s1.029.6,1,1.515-3.176,13.835-3.176,13.835-.249.887,1,.871,7.289,0,7.289,0a2,2,0,0,1-1.015-1.573c.034-.981,2.03-8.9,2.03-8.9a1.545,1.545,0,0,1,1.37-1.167c1.167-.135,2.706.22,3.738-.355s1.539-4.229,1.539-4.229H526.18a1.53,1.53,0,0,0-1.522.88c-.609,1.049-.356.991-.668,1.272s-1.158.1-1.158.1a13.083,13.083,0,0,0,.254-1.37c.034-.44-.254-.881-1.1-.88S515.062,1071.4,515.062,1071.4Z" transform="translate(-259.934 18.17)" fill="#2c2d6d"/>
      <path id="Path_43" data-name="Path 43" d="M571.48,1063.339c-.518,2.029-1.787,7.681-1.787,7.681s-.622,2.242,1.335,2.286,4.639,0,4.639,0a2.464,2.464,0,0,0,1.033-.22c.22-.2.7-.7.7-.7s-.506,3.848-1.231,4.6-1.319.748-3.122.77-8.465,0-8.465,0a3.3,3.3,0,0,1-2.638-1.583c-.792-1.517-.506-4.087-.33-5.144s1.979-8.774,1.979-8.774.835-3.782,3.562-4.815,12.709-.506,12.709-.506-.66,2.836-.879,3.32-.44.9-1.561.946-4.068.132-4.068.132S572,1061.31,571.48,1063.339Z" transform="translate(-292.613 28)" fill="#2c2d6d"/>
      <path id="Path_44" data-name="Path 44" d="M624.15,1091.681l.6-2.485h-3.969a4.977,4.977,0,0,0-4.474,2.485c-1.535,2.706-1.488,6.333,0,7.4s4.71.9,5.764-.1a4.786,4.786,0,0,0,1.444-2.485c.065-.39.078-.533.078-.533s-1.02.005-1.306-.788a2.808,2.808,0,0,1,.524-2.757C623.55,1091.557,624.15,1091.681,624.15,1091.681Z" transform="translate(-328.791 6.192)" fill="#2c2d6d"/>
      <path id="Path_45" data-name="Path 45" d="M630.177,1071.257l-.638,3.034a.612.612,0,0,0,.638.7c.726.022,4.947,0,4.947,0s.967.088.77,1.319-2.045,9.806-2.045,9.806-.374,1.341.572,1.385,7.322,0,7.322,0a1.3,1.3,0,0,1-.967-1.385c.022-1.187,2.463-10.994,2.463-10.994a4.46,4.46,0,0,0-.154-2.484,2.606,2.606,0,0,0-2-1.385Z" transform="translate(-338.459 18.263)" fill="#2c2d6d"/>
      <path id="Path_46" data-name="Path 46" d="M473.606,1057.875l-2,9.962-1.715,3.027h1.143l-.792,3.433h1.8l.572-3.433h.989l-.55-3.027,1.979-9.962Z" transform="translate(-231.008 27.057)" fill="#fac614"/>
    </g>
  </g>
</svg>
