<svg xmlns="http://www.w3.org/2000/svg" width="47.432" height="30" viewBox="0 0 47.432 30">
  <g id="Group_93" data-name="Group 93" transform="translate(0)">
    <path id="Path_47" data-name="Path 47" d="M6.081,0h35.27a6.081,6.081,0,0,1,6.081,6.081V23.919A6.081,6.081,0,0,1,41.351,30H6.081A6.081,6.081,0,0,1,0,23.919V6.081A6.081,6.081,0,0,1,6.081,0Z" transform="translate(0)" fill="#fff"/>
    <g id="Group_35" data-name="Group 35" transform="translate(7.67 10.308)">
      <path id="Path_41" data-name="Path 41" d="M442.446,1064.218l3.179-6.135s.127-.461,0-.62a.915.915,0,0,0-.381-.239h4.037a.617.617,0,0,1,.524.62c.064.588.529,7.124.529,7.124s.011.74.312.946.356.241.356.241h-3.552a.375.375,0,0,1-.405-.333,12.35,12.35,0,0,1,0-1.577h-1.874l-.629,1.244s-.116.289.072.441.3.224.3.224h-2.98s-.4-.036-.246-.463A14.441,14.441,0,0,1,442.446,1064.218Z" transform="translate(-441.649 -1057.164)" fill="#2c2d6d"/>
      <path id="Path_42" data-name="Path 42" d="M513.806,1071.4s.44.257.428.648-1.358,5.917-1.358,5.917-.107.379.427.373,3.118,0,3.118,0a.854.854,0,0,1-.434-.673c.014-.42.868-3.805.868-3.805a.661.661,0,0,1,.586-.5c.5-.058,1.157.094,1.6-.152s.658-1.809.658-1.809h-1.136a.655.655,0,0,0-.651.377c-.26.449-.152.424-.286.544s-.5.042-.5.042a5.588,5.588,0,0,0,.109-.586c.015-.188-.109-.377-.47-.377Z" transform="translate(-502.908 -1069.352)" fill="#2c2d6d"/>
      <path id="Path_43" data-name="Path 43" d="M565.723,1059.591c-.222.868-.764,3.285-.764,3.285s-.266.959.571.978,1.984,0,1.984,0a1.054,1.054,0,0,0,.442-.094c.094-.085.3-.3.3-.3a6.27,6.27,0,0,1-.527,1.965c-.31.32-.564.32-1.335.329s-3.621,0-3.621,0a1.41,1.41,0,0,1-1.128-.677,4.1,4.1,0,0,1-.141-2.2c.075-.452.846-3.753.846-3.753s.357-1.617,1.523-2.06,5.436-.216,5.436-.216-.282,1.213-.376,1.42-.188.385-.668.4-1.74.057-1.74.057S565.944,1058.723,565.723,1059.591Z" transform="translate(-544.671 -1056.79)" fill="#2c2d6d"/>
      <path id="Path_44" data-name="Path 44" d="M619.012,1090.256l.256-1.063h-1.7a2.128,2.128,0,0,0-1.914,1.063c-.657,1.157-.637,2.709,0,3.165a2.445,2.445,0,0,0,2.465-.043,2.047,2.047,0,0,0,.618-1.063c.028-.167.033-.228.033-.228s-.436,0-.559-.337a1.2,1.2,0,0,1,.224-1.179C618.755,1090.2,619.012,1090.256,619.012,1090.256Z" transform="translate(-590.907 -1084.661)" fill="#2c2d6d"/>
      <path id="Path_45" data-name="Path 45" d="M629.81,1071.257l-.273,1.3a.262.262,0,0,0,.273.3c.31.01,2.116,0,2.116,0s.414.038.329.564-.875,4.194-.875,4.194-.16.574.245.593,3.132,0,3.132,0a.555.555,0,0,1-.414-.593c.009-.508,1.053-4.7,1.053-4.7a1.908,1.908,0,0,0-.066-1.063,1.115,1.115,0,0,0-.856-.593Z" transform="translate(-603.263 -1069.234)" fill="#2c2d6d"/>
      <path id="Path_46" data-name="Path 46" d="M471.479,1057.875l-.856,4.261-.734,1.295h.489l-.339,1.469h.771l.245-1.469h.423l-.235-1.295.846-4.261Z" transform="translate(-465.941 -1057.814)" fill="#fac614"/>
    </g>
  </g>
</svg>
