<svg xmlns="http://www.w3.org/2000/svg" width="31" height="27" viewBox="0 0 31 27">
  <g id="Group_8767" data-name="Group 8767" transform="translate(-5 -10.367)">
    <path id="Path_254" data-name="Path 254" d="M44.24,37.695H39.011a2.579,2.579,0,1,0-4.3-2.733,2.579,2.579,0,1,0-4.3,2.733H25.18v4.967h1.1V52.778H43.141V42.662h1.1V37.695Zm-1.37,1.37v2.227H35.395V39.065Zm-7.006-3.071a1.21,1.21,0,1,1,1.21,1.21h-1.21Zm-3.517-1.21a1.211,1.211,0,0,1,1.21,1.21V37.2h-1.21a1.21,1.21,0,0,1,0-2.42Zm-5.8,4.281h7.475v2.227H26.55ZM41.771,51.408H27.649V42.662h6.376v8.716H35.4V42.662h6.376Z" transform="translate(-13.229 -15.411)" fill="#f79e1b"/>
    <path id="Path_255" data-name="Path 255" d="M6.666,48.757,5,51.642H8.332Z" transform="translate(0 -25.331)" fill="#f79e1b"/>
    <path id="Path_256" data-name="Path 256" d="M82.542,17.7a1.533,1.533,0,0,0-.165,1.312c.028.1.06.2.09.288.121.357.139.465.05.6s-.2.165-.571.2c-.091.009-.193.019-.3.035a1.518,1.518,0,0,0-1.3,2c.029.1.061.2.09.288.121.356.14.465.05.6s-.2.165-.57.2c-.091.009-.193.019-.3.035a1.529,1.529,0,0,0-1.13.684.576.576,0,1,0,.966.627c.089-.137.2-.164.57-.2a1.587,1.587,0,0,0,1.5-2.319c-.121-.356-.14-.465-.05-.6s.2-.165.571-.2a1.588,1.588,0,0,0,1.506-2.32c-.121-.357-.139-.465-.05-.6a.576.576,0,0,0-.967-.627Z" transform="translate(-48.116 -4.636)" fill="#f79e1b"/>
    <path id="Path_257" data-name="Path 257" d="M86.1,74.657l-.509-.509-.939.939-.939-.939-.509.509-.509.509.939.939-.939.939.509.509.509.509.939-.939.939.939.509-.509.509-.509-.939-.939.939-.939Z" transform="translate(-50.935 -42.115)" fill="#f79e1b"/>
    <path id="Path_258" data-name="Path 258" d="M13.1,74.709h-1.44v1.328H10.335v1.44h1.328V78.8H13.1V77.477H14.43v-1.44H13.1Z" transform="translate(-3.497 -42.482)" fill="#f79e1b"/>
    <path id="Path_259" data-name="Path 259" d="M66.038,10.367l-.939.939-.939-.939-1.018,1.018.939.939-.939.939,1.018,1.018.939-.939.939.939,1.018-1.018-.939-.939.939-.939Z" transform="translate(-38.115 0)" fill="#f79e1b"/>
    <circle id="Ellipse_26" data-name="Ellipse 26" cx="1.142" cy="1.142" r="1.142" transform="translate(15.622 10.705)" fill="#f79e1b"/>
    <path id="Path_260" data-name="Path 260" d="M89.509,51.84a1.143,1.143,0,1,0,1.143,1.143A1.144,1.144,0,0,0,89.509,51.84Z" transform="translate(-54.651 -27.361)" fill="#f79e1b"/>
    <path id="Path_261" data-name="Path 261" d="M17.393,21.934a2.055,2.055,0,1,0,2.055,2.055A2.058,2.058,0,0,0,17.393,21.934Zm0,2.958a.9.9,0,1,1,.9-.9A.9.9,0,0,1,17.393,24.892Z" transform="translate(-6.777 -7.583)" fill="#f79e1b"/>
  </g>
</svg>
