<svg xmlns="http://www.w3.org/2000/svg" width="39.216" height="32.156" viewBox="0 0 39.216 32.156">
  <g id="Group_8674" data-name="Group 8674" transform="translate(-1094.413 -27.937)">
    <path id="Path_127" data-name="Path 127" d="M23.15,43.4A3.85,3.85,0,1,1,27,39.55,3.951,3.951,0,0,1,23.15,43.4Zm0-5.933a2.083,2.083,0,1,0,2.083,2.083A2.19,2.19,0,0,0,23.15,37.467Z" transform="matrix(0.995, 0.105, -0.105, 0.995, 1091.054, 14.108)" fill="#77808d"/>
    <path id="Path_128" data-name="Path 128" d="M51.65,40.2a3.85,3.85,0,1,1,3.85-3.85A3.826,3.826,0,0,1,51.65,40.2Zm0-5.87a2.083,2.083,0,1,0,2.083,2.083A2.1,2.1,0,0,0,51.65,34.331Z" transform="matrix(0.995, 0.105, -0.105, 0.995, 1080.478, 14.183)" fill="#77808d"/>
    <path id="Path_132" data-name="Path 132" d="M36.859,4.73a1.014,1.014,0,0,0-.694-.316l-22.68.713c-1.136,0-1.136,1.831,0,1.767l21.67-.713L33.64,15.524l-18.558,4.8L9.4,1.574A.978.978,0,0,0,8.644.943L1.006,0A.919.919,0,0,0,0,.753a.919.919,0,0,0,.757,1.01l7.133.884L13.567,21.71a.872.872,0,0,0,.821.631h.252l19.947-5.176a.89.89,0,0,0,.631-.694L37.049,5.488A.83.83,0,0,0,36.859,4.73Z" transform="matrix(0.995, 0.105, -0.105, 0.995, 1096.76, 27.949)" fill="#77808d"/>
  </g>
</svg>
