<svg xmlns="http://www.w3.org/2000/svg" xmlns:xlink="http://www.w3.org/1999/xlink" width="117" height="74" viewBox="0 0 117 74">
  <defs>
    <clipPath id="clip-path">
      <path id="Path_22" data-name="Path 22" d="M15.375,3.142a.9.9,0,0,1-1.253.342l-1.1-.645a7.2,7.2,0,0,0-7.4,0A7.29,7.29,0,0,0,1.9,9.254v1.253a.924.924,0,0,1-.911.911.924.924,0,0,1-.911-.911V9.254A9.048,9.048,0,0,1,4.707,1.206a9.011,9.011,0,0,1,9.263,0l1.1.645a1.065,1.065,0,0,1,.3,1.291M13.515,18.4a.9.9,0,0,0-1.253-.342l-1.1.645A3.72,3.72,0,0,1,5.58,15.48V9.292a3.72,3.72,0,0,1,5.58-3.227l5.353,3.113a3.729,3.729,0,0,1,0,6.454l-1.1.645a.918.918,0,1,0,.911,1.594l1.1-.645A5.4,5.4,0,0,0,20.2,12.405a5.471,5.471,0,0,0-2.771-4.821L12.072,4.471a5.448,5.448,0,0,0-5.58,0A5.4,5.4,0,0,0,3.72,9.292V15.48A5.561,5.561,0,0,0,12.072,20.3l1.1-.645h0A.951.951,0,0,0,13.515,18.4Zm.418,5.125a9.011,9.011,0,0,1-9.263,0A9.083,9.083,0,0,1,0,15.48V14.227a.924.924,0,0,1,.911-.911.924.924,0,0,1,.911.911V15.48A7.246,7.246,0,0,0,5.542,21.9a7.2,7.2,0,0,0,7.4,0c1.784-1.025,3.568-2.05,5.353-3.113a7.29,7.29,0,0,0,3.72-6.416h0A7.246,7.246,0,0,0,18.3,5.951l-1.1-.645a.918.918,0,0,1,.911-1.594h0l1.1.645a8.954,8.954,0,0,1,4.707,8.01,9.048,9.048,0,0,1-4.631,8.048C17.5,21.44,15.716,22.465,13.932,23.528ZM7.441,10.545a.9.9,0,0,0,.911.911.924.924,0,0,0,.911-.911h0V9.672a.209.209,0,0,1,.114-.19.242.242,0,0,1,.228,0l2.354,1.367,2.354,1.367a.215.215,0,0,1,0,.38l-2.354,1.367L9.6,15.328a.242.242,0,0,1-.228,0,.209.209,0,0,1-.114-.19v-.873a.9.9,0,0,0-.911-.911.924.924,0,0,0-.911.911v1.253a1.841,1.841,0,0,0,2.771,1.594L15.564,14a1.744,1.744,0,0,0,.911-1.594,1.818,1.818,0,0,0-.911-1.594L10.212,7.7a1.816,1.816,0,0,0-1.86,0,1.744,1.744,0,0,0-.911,1.594Z" transform="translate(0 0.075)"/>
    </clipPath>
  </defs>
  <g id="Group_27" data-name="Group 27" transform="translate(-373 -855)">
    <path id="Path_30" data-name="Path 30" d="M15,0h87a15,15,0,0,1,15,15V59a15,15,0,0,1-15,15H15A15,15,0,0,1,0,59V15A15,15,0,0,1,15,0Z" transform="translate(373 855)" fill="#fff"/>
    <g id="idram_logo.svg" data-name="idram logo.svg" transform="translate(388 880.075)">
      <g id="Group_13" data-name="Group 13" transform="translate(0 -0.075)">
        <g id="Group_12" data-name="Group 12" transform="translate(0 0)">
          <path id="Path_21" data-name="Path 21" d="M15.375,3.142a.9.9,0,0,1-1.253.342l-1.1-.645a7.2,7.2,0,0,0-7.4,0A7.29,7.29,0,0,0,1.9,9.254v1.253a.924.924,0,0,1-.911.911.924.924,0,0,1-.911-.911V9.254A9.048,9.048,0,0,1,4.707,1.206a9.011,9.011,0,0,1,9.263,0l1.1.645a1.065,1.065,0,0,1,.3,1.291M13.515,18.4a.9.9,0,0,0-1.253-.342l-1.1.645A3.72,3.72,0,0,1,5.58,15.48V9.292a3.72,3.72,0,0,1,5.58-3.227l5.353,3.113a3.729,3.729,0,0,1,0,6.454l-1.1.645a.918.918,0,1,0,.911,1.594l1.1-.645A5.4,5.4,0,0,0,20.2,12.405a5.471,5.471,0,0,0-2.771-4.821L12.072,4.471a5.448,5.448,0,0,0-5.58,0A5.4,5.4,0,0,0,3.72,9.292V15.48A5.561,5.561,0,0,0,12.072,20.3l1.1-.645h0A.951.951,0,0,0,13.515,18.4Zm.418,5.125a9.011,9.011,0,0,1-9.263,0A9.083,9.083,0,0,1,0,15.48V14.227a.924.924,0,0,1,.911-.911.924.924,0,0,1,.911.911V15.48A7.246,7.246,0,0,0,5.542,21.9a7.2,7.2,0,0,0,7.4,0c1.784-1.025,3.568-2.05,5.353-3.113a7.29,7.29,0,0,0,3.72-6.416h0A7.246,7.246,0,0,0,18.3,5.951l-1.1-.645a.918.918,0,0,1,.911-1.594h0l1.1.645a8.954,8.954,0,0,1,4.707,8.01,9.048,9.048,0,0,1-4.631,8.048C17.5,21.44,15.716,22.465,13.932,23.528ZM7.441,10.545a.9.9,0,0,0,.911.911.924.924,0,0,0,.911-.911h0V9.672a.209.209,0,0,1,.114-.19.242.242,0,0,1,.228,0l2.354,1.367,2.354,1.367a.215.215,0,0,1,0,.38l-2.354,1.367L9.6,15.328a.242.242,0,0,1-.228,0,.209.209,0,0,1-.114-.19v-.873a.9.9,0,0,0-.911-.911.924.924,0,0,0-.911.911v1.253a1.841,1.841,0,0,0,2.771,1.594L15.564,14a1.744,1.744,0,0,0,.911-1.594,1.818,1.818,0,0,0-.911-1.594L10.212,7.7a1.816,1.816,0,0,0-1.86,0,1.744,1.744,0,0,0-.911,1.594Z" transform="translate(0 0.075)" fill="#f5821e"/>
          <g id="Group_11" data-name="Group 11" clip-path="url(#clip-path)">
            <rect id="Rectangle_12" data-name="Rectangle 12" width="23.916" height="25.662" transform="translate(0 -0.389)" fill="#f5821e"/>
          </g>
        </g>
      </g>
      <g id="Group_14" data-name="Group 14" transform="translate(29.611 5.192)">
        <path id="Path_23" data-name="Path 23" d="M79.139,13.8a1.142,1.142,0,0,1,1.139,1.139A1.139,1.139,0,1,1,79.139,13.8M78.3,17.672h1.67v10.25H78.3Z" transform="translate(-78 -13.8)" fill-rule="evenodd"/>
        <path id="Path_24" data-name="Path 24" d="M129.491,23.3a5.384,5.384,0,0,0-3.72,1.481V23.566H124.1v10.25h1.67V28.691a3.726,3.726,0,0,1,3.72-3.72Z" transform="translate(-106.599 -19.694)" fill-rule="evenodd"/>
        <path id="Path_25" data-name="Path 25" d="M177.27,23.566H175.6v10.25h1.67V28.691a3.72,3.72,0,1,1,7.441,0v5.125h1.67V28.691a3.72,3.72,0,0,1,7.441,0v5.125h1.67V28.691a5.392,5.392,0,0,0-9.946-2.885,5.325,5.325,0,0,0-4.555-2.506,5.384,5.384,0,0,0-3.72,1.481Z" transform="translate(-138.549 -19.694)" fill-rule="evenodd"/>
        <path id="Path_26" data-name="Path 26" d="M98.311,13.8v5.125a5.391,5.391,0,1,0,0,7.82v1.177h1.67V13.8ZM94.553,26.517a3.72,3.72,0,1,1,3.72-3.72A3.678,3.678,0,0,1,94.553,26.517Z" transform="translate(-84.948 -13.8)" fill-rule="evenodd"/>
        <path id="Path_27" data-name="Path 27" d="M149.711,23.628v1.253a5.391,5.391,0,1,0,0,7.82v1.177h1.67V23.628Zm0,5.125a3.536,3.536,0,1,1,0-.38v.38Z" transform="translate(-116.836 -19.756)" fill-rule="evenodd"/>
      </g>
    </g>
  </g>
</svg>
