<svg xmlns="http://www.w3.org/2000/svg" width="117.4" height="44.65" viewBox="0 0 117.4 44.65">
  <g id="_5e839820cb248" data-name="5e839820cb248" transform="translate(0 0.05)">
    <g id="Group_8655" data-name="Group 8655">
      <path id="Path_91" data-name="Path 91" d="M6,27.7A17.468,17.468,0,0,1,.5,18.5,17.045,17.045,0,0,1,0,14.4V30.9a1.181,1.181,0,0,0,1.3,1.2,12.4,12.4,0,0,0,7.6-3.3h0A4.232,4.232,0,0,1,6,27.7Z" fill="#73cde1"/>
      <path id="Path_92" data-name="Path 92" d="M17.8,15v.7a17.667,17.667,0,0,1-6,12.1,4.357,4.357,0,0,1-2.9,1.1h0a11.958,11.958,0,0,0,7.6,3.3A1.181,1.181,0,0,0,17.8,31V15Z" fill="#73cde1"/>
      <path id="Path_93" data-name="Path 93" d="M10.8,34.3a2.1,2.1,0,0,0-3.8,0c-1,2.2-2.1,4.8-2.1,6.3a4.012,4.012,0,0,0,4,4h0a4.012,4.012,0,0,0,4-4C12.9,39.1,11.8,36.5,10.8,34.3Z" fill="#ed3d7f"/>
      <path id="Path_94" data-name="Path 94" d="M11.7,1A4.258,4.258,0,0,0,6.1,1,18,18,0,0,0,0,14.4,17.54,17.54,0,0,0,6,27.7a4.393,4.393,0,0,0,5.7,0,17.54,17.54,0,0,0,6-13.3A17.567,17.567,0,0,0,11.7,1ZM8.9,18.3a5.143,5.143,0,0,1-5.1-5.2,2.769,2.769,0,0,1,.1-.9A5.055,5.055,0,0,1,8.9,8,5.243,5.243,0,0,1,14,12.2a2.769,2.769,0,0,1,.1.9A5.164,5.164,0,0,1,8.9,18.3Z" fill="#632469"/>
    </g>
    <g id="Group_8656" data-name="Group 8656">
      <path id="Path_95" data-name="Path 95" d="M54.8,19.1a2.263,2.263,0,0,1-2.3-2.3v13a2.3,2.3,0,1,0,4.6,0v-13A2.326,2.326,0,0,1,54.8,19.1Z" fill="#73cde1"/>
      <path id="Path_96" data-name="Path 96" d="M61.3,8a8.749,8.749,0,0,0-8.8,8.8,2.3,2.3,0,1,1,4.6,0,4.2,4.2,0,0,1,8.4,0,2.3,2.3,0,0,0,4.6,0A8.813,8.813,0,0,0,61.3,8Z" fill="#73cde1"/>
      <circle id="Ellipse_19" data-name="Ellipse 19" cx="2.3" cy="2.3" r="2.3" transform="translate(52.5 14.5)" fill="#34aec4"/>
      <path id="Path_97" data-name="Path 97" d="M75,21.1a2.263,2.263,0,0,1,2.3,2.3v-13a2.3,2.3,0,0,0-4.6,0v13A2.263,2.263,0,0,1,75,21.1Z" fill="#632469"/>
      <path id="Path_98" data-name="Path 98" d="M85.2,25.4a2.263,2.263,0,0,1,3.2-.6L90,25.9a10.054,10.054,0,0,0,.4-2.5v-13a2.3,2.3,0,0,0-4.6,0v13a4.2,4.2,0,1,1-8.4,0,2.3,2.3,0,0,1-4.6,0,8.771,8.771,0,0,0,14.8,6.4l-1.7-1.1A2.334,2.334,0,0,1,85.2,25.4Z" fill="#632469"/>
      <circle id="Ellipse_20" data-name="Ellipse 20" cx="2.3" cy="2.3" r="2.3" transform="translate(72.7 21)" fill="#44154a"/>
      <path id="Path_99" data-name="Path 99" d="M114.3,14.5a2.249,2.249,0,0,1,2.2,1.9,8.754,8.754,0,0,0-17.5.4,2.3,2.3,0,0,0,4.6,0,4.2,4.2,0,1,1,8.4,0v0A2.473,2.473,0,0,1,114.3,14.5Z" fill="#73cde1"/>
      <path id="Path_100" data-name="Path 100" d="M34.7,17.8a2.3,2.3,0,0,1,0-4.6h2.2V10.3a2.3,2.3,0,1,0-4.6,0v13a8.749,8.749,0,0,0,8.8,8.8,2.3,2.3,0,0,1,0-4.6,4.225,4.225,0,0,1-4.2-4.2V17.7H34.7Z" fill="#ed3d7f"/>
      <path id="Path_101" data-name="Path 101" d="M43.4,29.9a2.263,2.263,0,0,1-2.3,2.3,8.749,8.749,0,0,0,8.8-8.8,2.3,2.3,0,0,0-4.6,0,4.225,4.225,0,0,1-4.2,4.2A2.263,2.263,0,0,1,43.4,29.9Z" fill="#ed3d7f"/>
      <circle id="Ellipse_21" data-name="Ellipse 21" cx="2.3" cy="2.3" r="2.3" transform="translate(38.8 27.6)" fill="#c4306a"/>
      <path id="Path_102" data-name="Path 102" d="M113.4,25.5a13.17,13.17,0,0,1-10,4.6h9.4a2.319,2.319,0,0,0,4.6-.4A4.5,4.5,0,0,0,113.4,25.5Z" fill="#73cde1"/>
      <path id="Path_103" data-name="Path 103" d="M101.1,27.8a2.162,2.162,0,0,1,1.5-2.1,2.354,2.354,0,0,1,.8-.2h-.8a2.242,2.242,0,0,0-2.3-2.2h0A2.263,2.263,0,0,0,98,25.6v4.2a2.263,2.263,0,0,0,2.3,2.3h0a2.362,2.362,0,0,0,2.3-2h.8a1.884,1.884,0,0,1-.8-.2A2.162,2.162,0,0,1,101.1,27.8Z" fill="#73cde1"/>
      <path id="Path_104" data-name="Path 104" d="M92.9,27.8l-2.9-2a9.835,9.835,0,0,1-2.4,3.9l2.8,1.9a2.01,2.01,0,0,0,1.3.4,2.417,2.417,0,0,0,1.9-1A2.5,2.5,0,0,0,92.9,27.8Z" fill="#632469"/>
      <path id="Path_105" data-name="Path 105" d="M89.9,25.9l-1.6-1.1a2.3,2.3,0,0,0-2.6,3.8l1.7,1.1A7.489,7.489,0,0,0,89.9,25.9Z" fill="#44154a"/>
      <path id="Path_106" data-name="Path 106" d="M47.6,17.8a2.3,2.3,0,0,0,0-4.6H36.9v4.6Z" fill="#ed3d7f"/>
      <path id="Path_107" data-name="Path 107" d="M32.4,15.5a2.263,2.263,0,0,0,2.3,2.3h2.2V13.2H34.7A2.263,2.263,0,0,0,32.4,15.5Z" fill="#c4306a"/>
      <path id="Path_108" data-name="Path 108" d="M113.4,25.5a13.386,13.386,0,0,0,3.3-8.7v0a2.263,2.263,0,0,1-2.3,2.3,2.362,2.362,0,0,1-2.3-2,8.712,8.712,0,0,1-8.7,8.4h10Z" fill="#73cde1"/>
      <path id="Path_109" data-name="Path 109" d="M114.3,19.1a2.263,2.263,0,0,0,2.3-2.3v-.4a2.265,2.265,0,0,0-4.5.4v.3A2.115,2.115,0,0,0,114.3,19.1Z" fill="#34aec4"/>
      <path id="Path_110" data-name="Path 110" d="M113,25.5h-9.7a1.884,1.884,0,0,0-.8.2,2.256,2.256,0,0,0-1.5,2.1,2.162,2.162,0,0,0,1.5,2.1,2.354,2.354,0,0,0,.8.2,13.17,13.17,0,0,0,10-4.6Z" fill="#34aec4"/>
    </g>
    <g id="Group_8657" data-name="Group 8657">
      <path id="Path_111" data-name="Path 111" d="M35.2,39.2h0c-.2,0-.3.1-.3.2v1.3a1.483,1.483,0,0,1-.1.7,1.132,1.132,0,0,1-1.2.7,1.483,1.483,0,0,1-.7-.1,1.205,1.205,0,0,1-.5-.5v-.1h0V39a.215.215,0,0,1,.2-.2h0a.215.215,0,0,1,.2.2v1.7a1.549,1.549,0,0,0,.2.8.779.779,0,0,0,.7.3c.4,0,.6-.1.7-.4.1-.1.1-.3.1-.6V39a.215.215,0,0,1,.2-.2h.5a.215.215,0,0,1,.2.2h0A.215.215,0,0,1,35.2,39.2Z" fill="#632469"/>
      <path id="Path_112" data-name="Path 112" d="M40.6,42a.188.188,0,0,0-.3,0c-.1,0-.2.1-.3.1a1.087,1.087,0,0,1-.5.1,1.209,1.209,0,0,1-1.2-.6,1.949,1.949,0,0,1-.1-.8V39a.215.215,0,0,1,.2-.2h0a.215.215,0,0,1,.2.2v2.2a.792.792,0,0,0,.8.5.779.779,0,0,0,.7-.3,1.549,1.549,0,0,0,.2-.8V39a.215.215,0,0,1,.2-.2h0a.215.215,0,0,1,.2.2v2.4c0,.1,0,.1.1.1l.2.2a.188.188,0,0,1,0,.3h0a.188.188,0,0,1-.3,0Z" fill="#632469"/>
      <path id="Path_113" data-name="Path 113" d="M43.6,38.8h.7a.215.215,0,0,1,.2.2v2.2a.792.792,0,0,0,.8.5.779.779,0,0,0,.7-.3,1.549,1.549,0,0,0,.2-.8v-.4a.215.215,0,0,1,.2-.2h0a.215.215,0,0,1,.2.2v.4a1.949,1.949,0,0,1-.1.8,1.273,1.273,0,0,1-1.2.7,1.209,1.209,0,0,1-1.2-.6,1.949,1.949,0,0,1-.1-.8V39.4a.215.215,0,0,0-.2-.2h-.3a.215.215,0,0,1-.2-.2h0C43.4,38.9,43.5,38.8,43.6,38.8Z" fill="#632469"/>
      <path id="Path_114" data-name="Path 114" d="M51.9,42.1h0a.215.215,0,0,1-.2-.2v-.4c0-.1-.1-.2-.3-.2-.1,0-.2.1-.4.1h-.1a1.209,1.209,0,0,1-1.2-.6,1.949,1.949,0,0,1-.1-.8V39a.215.215,0,0,1,.2-.2h0a.215.215,0,0,1,.2.2v1.5a.792.792,0,0,0,.8.5,1.165,1.165,0,0,0,.7-.2,1.292,1.292,0,0,0,.2-.8v-.1a.215.215,0,0,1,.2-.2h0a.215.215,0,0,1,.2.2V42A.349.349,0,0,1,51.9,42.1Z" fill="#632469"/>
      <path id="Path_115" data-name="Path 115" d="M57.5,42a.188.188,0,0,0-.3,0c-.1,0-.2.1-.3.1a1.087,1.087,0,0,1-.5.1,1.209,1.209,0,0,1-1.2-.6,1.949,1.949,0,0,1-.1-.8V39a.215.215,0,0,1,.2-.2h0a.215.215,0,0,1,.2.2v2.2a.792.792,0,0,0,.8.5.779.779,0,0,0,.7-.3,1.549,1.549,0,0,0,.2-.8V39a.215.215,0,0,1,.2-.2h0a.215.215,0,0,1,.2.2v2.4c0,.1,0,.1.1.1l.2.2a.188.188,0,0,1,0,.3h0a.188.188,0,0,1-.3,0Z" fill="#632469"/>
      <path id="Path_116" data-name="Path 116" d="M63,42.1h0a.215.215,0,0,1-.2-.2v-.4c0-.1-.1-.2-.3-.2-.1,0-.2.1-.4.1H62a1.209,1.209,0,0,1-1.2-.6,1.949,1.949,0,0,1-.1-.8V39a.215.215,0,0,1,.2-.2h0a.215.215,0,0,1,.2.2v1.5a.792.792,0,0,0,.8.5,1.165,1.165,0,0,0,.7-.2,1.292,1.292,0,0,0,.2-.8v-.1a.215.215,0,0,1,.2-.2h0a.215.215,0,0,1,.2.2V42A.349.349,0,0,1,63,42.1Z" fill="#632469"/>
      <path id="Path_117" data-name="Path 117" d="M68.6,42a.188.188,0,0,0-.3,0c-.1,0-.2.1-.3.1a1.087,1.087,0,0,1-.5.1,1.209,1.209,0,0,1-1.2-.6,1.949,1.949,0,0,1-.1-.8V39a.215.215,0,0,1,.2-.2h0a.215.215,0,0,1,.2.2v2.2a.792.792,0,0,0,.8.5.779.779,0,0,0,.7-.3,1.549,1.549,0,0,0,.2-.8V39a.215.215,0,0,1,.2-.2h0a.215.215,0,0,1,.2.2v2.4c0,.1,0,.1.1.1l.2.2a.188.188,0,0,1,0,.3h0a.188.188,0,0,1-.3,0Z" fill="#632469"/>
      <path id="Path_118" data-name="Path 118" d="M71.6,38.8h.7a.215.215,0,0,1,.2.2v2.2a.792.792,0,0,0,.8.5.779.779,0,0,0,.7-.3,1.549,1.549,0,0,0,.2-.8v-.4a.215.215,0,0,1,.2-.2h0a.215.215,0,0,1,.2.2v.4a1.949,1.949,0,0,1-.1.8,1.273,1.273,0,0,1-1.2.7,1.209,1.209,0,0,1-1.2-.6,1.949,1.949,0,0,1-.1-.8V39.4a.215.215,0,0,0-.2-.2h-.3a.215.215,0,0,1-.2-.2h0C71.4,38.9,71.5,38.8,71.6,38.8Z" fill="#632469"/>
      <path id="Path_119" data-name="Path 119" d="M83.4,42.1h0a.215.215,0,0,1-.2-.2v-.4c0-.1-.1-.2-.3-.2-.1,0-.2.1-.4.1h-.1a1.209,1.209,0,0,1-1.2-.6,1.949,1.949,0,0,1-.1-.8V39a.215.215,0,0,1,.2-.2h0a.215.215,0,0,1,.2.2v1.5a.792.792,0,0,0,.8.5,1.165,1.165,0,0,0,.7-.2,1.292,1.292,0,0,0,.2-.8v-.1a.215.215,0,0,1,.2-.2h0a.215.215,0,0,1,.2.2V42A.349.349,0,0,1,83.4,42.1Z" fill="#632469"/>
      <path id="Path_120" data-name="Path 120" d="M89.1,40.6a1.949,1.949,0,0,1-.1.8,1.273,1.273,0,0,1-1.2.7,1.209,1.209,0,0,1-1.2-.6,1.949,1.949,0,0,1-.1-.8V39a.215.215,0,0,1,.2-.2h0a.215.215,0,0,1,.2.2v.3a.215.215,0,0,0,.2.2h1.7a.215.215,0,0,1,.2.2h0a.215.215,0,0,1-.2.2H87.1a.215.215,0,0,0-.2.2v1.1a.792.792,0,0,0,.8.5.779.779,0,0,0,.7-.3,1.549,1.549,0,0,0,.2-.8v-.2a.215.215,0,0,1,.2-.2h0a.215.215,0,0,1,.2.2v.2Z" fill="#632469"/>
      <path id="Path_121" data-name="Path 121" d="M92,38.8h.7a.215.215,0,0,1,.2.2v2.2a.792.792,0,0,0,.8.5.779.779,0,0,0,.7-.3,1.549,1.549,0,0,0,.2-.8v-.4a.215.215,0,0,1,.2-.2h0a.215.215,0,0,1,.2.2v.4a1.949,1.949,0,0,1-.1.8,1.273,1.273,0,0,1-1.2.7,1.209,1.209,0,0,1-1.2-.6,1.949,1.949,0,0,1-.1-.8V39.4a.215.215,0,0,0-.2-.2H92a.215.215,0,0,1-.2-.2h0A.215.215,0,0,1,92,38.8Z" fill="#632469"/>
      <path id="Path_122" data-name="Path 122" d="M98,41h0a.215.215,0,0,1,.2.2,1,1,0,0,0,.4.5H99a.6.6,0,0,0,.4-.1.512.512,0,0,0,0-1c-.1,0-.2-.1-.6-.2-.3-.1-.5-.1-.6-.2-.3-.2-.5-.4-.5-.7a.891.891,0,0,1,.5-.8,1.268,1.268,0,0,1,.6-.1,1.206,1.206,0,0,1,1.2.8v.2h-.2c-.1,0-.2,0-.2-.1-.1-.3-.3-.5-.8-.5a.749.749,0,0,0-.5.1c-.2.1-.3.2-.3.4s.1.3.3.4a2.034,2.034,0,0,0,.5.1c.3.1.6.1.7.2a.634.634,0,0,1,.5.6V41a.76.76,0,0,1-.6.8,1.268,1.268,0,0,1-.6.1,1.364,1.364,0,0,1-1.2-.5c-.1-.1-.1-.2-.2-.4A1.056,1.056,0,0,0,98,41Z" fill="#632469"/>
      <path id="Path_123" data-name="Path 123" d="M105.6,40.8h0a.215.215,0,0,1-.2-.2v-.3a1.549,1.549,0,0,0-.2-.8.779.779,0,0,0-.7-.3c-.4,0-.6.1-.7.4-.1.1-.1.3-.1.6v1.7a.215.215,0,0,1-.2.2h0a.215.215,0,0,1-.2-.2V40.2a1.483,1.483,0,0,1,.1-.7,1.132,1.132,0,0,1,1.2-.7c.7,0,1.1.3,1.2.8,0,.2.1.4.1.6v.3Q105.75,40.8,105.6,40.8Z" fill="#632469"/>
      <path id="Path_124" data-name="Path 124" d="M111.1,42.1h0a.215.215,0,0,1-.2-.2V40.2a1.549,1.549,0,0,0-.2-.8.779.779,0,0,0-.7-.3c-.4,0-.6.1-.7.4-.1.1-.1.3-.1.6v1.7a.215.215,0,0,1-.2.2h0a.215.215,0,0,1-.2-.2V40.1a1.483,1.483,0,0,1,.1-.7,1.132,1.132,0,0,1,1.2-.7c.7,0,1.1.3,1.2.8,0,.2.1.4.1.6v1.7Q111.25,42.1,111.1,42.1Z" fill="#632469"/>
      <path id="Path_125" data-name="Path 125" d="M114.2,38.8h.7a.215.215,0,0,1,.2.2v2.2a.792.792,0,0,0,.8.5.779.779,0,0,0,.7-.3,1.549,1.549,0,0,0,.2-.8v-.4a.215.215,0,0,1,.2-.2h0a.215.215,0,0,1,.2.2v.4a1.949,1.949,0,0,1-.1.8,1.273,1.273,0,0,1-1.2.7,1.209,1.209,0,0,1-1.2-.6,1.949,1.949,0,0,1-.1-.8V39.4a.215.215,0,0,0-.2-.2h-.3a.215.215,0,0,1-.2-.2h0C114,38.9,114.1,38.8,114.2,38.8Z" fill="#632469"/>
    </g>
  </g>
</svg>
