<svg xmlns="http://www.w3.org/2000/svg" width="117" height="74" viewBox="0 0 117 74">
  <g id="Group_4" data-name="Group 4" transform="translate(-424 -159)">
    <g id="Group_1" data-name="Group 1">
      <path id="Path_3" data-name="Path 3" d="M15,0h87a15,15,0,0,1,15,15V59a15,15,0,0,1-15,15H15A15,15,0,0,1,0,59V15A15,15,0,0,1,15,0Z" transform="translate(424 159)" fill="#fff"/>
      <g id="_Group_" data-name="&lt;Group&gt;" transform="translate(419.035 161.009)">
        <rect id="Rectangle_2" data-name="Rectangle 2" width="14.032" height="25.218" transform="translate(56.895 22.416)" fill="#ff5f00"/>
        <path id="_Path_" data-name="&lt;Path&gt;" d="M57.786,35.039a16.01,16.01,0,0,1,6.125-12.607,16.037,16.037,0,1,0,0,25.218,16.01,16.01,0,0,1-6.125-12.611Z" transform="translate(0 -0.008)" fill="#eb001b"/>
        <path id="Path_2" data-name="Path 2" d="M122.158,35.031A16.037,16.037,0,0,1,96.21,47.638a16.037,16.037,0,0,0,0-25.218,16.037,16.037,0,0,1,25.948,12.611Z" transform="translate(-32.299 0)" fill="#f79e1b"/>
      </g>
    </g>
  </g>
</svg>
