<svg xmlns="http://www.w3.org/2000/svg" width="100" height="100" viewBox="0 0 100 100">
  <g id="Group_8690" data-name="Group 8690" transform="translate(-142 -627)">
    <rect id="Rectangle_62" data-name="Rectangle 62" width="100" height="100" transform="translate(142 627)" fill="#f9fbff"/>
    <path id="Path_155" data-name="Path 155" d="M209.029,227.539v40.332H156.95V227.539h52.079m.088-4.307H156.852a4.22,4.22,0,0,0-4.219,4.219v40.518a4.22,4.22,0,0,0,4.219,4.219h52.265a4.22,4.22,0,0,0,4.219-4.219V227.451A4.22,4.22,0,0,0,209.117,223.232Z" transform="translate(9.015 429.29)" fill="#d3d9f0"/>
    <path id="Path_156" data-name="Path 156" d="M180.591,346.681a4.307,4.307,0,1,0,4.307,4.307A4.307,4.307,0,0,0,180.591,346.681Zm36.485,31.287-15.7-19.442-13.666,17.327-10.749-9.995-13.744,11.307-2.731-3.328,16.642-13.705,10.093,9.388,14.116-17.895,19.1,23.631Z" transform="translate(1.84 316.462)" fill="#d3d9f0"/>
  </g>
</svg>
