<svg xmlns="http://www.w3.org/2000/svg" xmlns:xlink="http://www.w3.org/1999/xlink" width="117" height="74" viewBox="0 0 117 74">
  <defs>
    <linearGradient id="linear-gradient" x1="0.405" y1="1.446" x2="0.249" y2="3.019" gradientUnits="objectBoundingBox">
      <stop offset="0.02" stop-color="#ed1c24"/>
      <stop offset="1" stop-color="#be1e2d"/>
    </linearGradient>
    <linearGradient id="linear-gradient-2" x1="0.5" y1="0.074" x2="0.5" y2="0.704" xlink:href="#linear-gradient"/>
    <linearGradient id="linear-gradient-3" x1="0.5" y1="0.223" x2="0.5" y2="1.058" xlink:href="#linear-gradient"/>
  </defs>
  <g id="Group_126" data-name="Group 126" transform="translate(-376 -1653)">
    <g id="Group_114" data-name="Group 114" transform="translate(1 342)">
      <path id="Path_65" data-name="Path 65" d="M15,0h87a15,15,0,0,1,15,15V59a15,15,0,0,1-15,15H15A15,15,0,0,1,0,59V15A15,15,0,0,1,15,0Z" transform="translate(375 1311)" fill="#fff"/>
    </g>
    <g id="Homepage" transform="translate(392 1676.997)">
      <g id="Home-Experiment" transform="translate(0 0.003)">
        <g id="Navbar" transform="translate(0 0)">
          <g id="PayFast-Logo-Colour" transform="translate(0 0)">
            <path id="Shape" d="M96.427,9.433a8.482,8.482,0,0,1-1.6.751,7.573,7.573,0,0,1-1.893.473c-.275.045-.556.084-.842.112h-.005c-2.652.227-4.917-.342-6.212-1.562-.013-.008-.021-.023-.034-.031v.146a2.251,2.251,0,0,0,.568,1.472c1.052,1.207,3.074,1.864,5.426,1.9a9.457,9.457,0,0,0,4.089-.81,4.32,4.32,0,0,0,1.367-1,2.253,2.253,0,0,0,.6-1.465,2.121,2.121,0,0,0-.239-.979,5.4,5.4,0,0,1-1.222.99ZM91.8,7.766a8.61,8.61,0,0,1-5.943-1.331,2.314,2.314,0,0,0,.565,1.336c1.05,1.208,3.074,1.863,5.426,1.9a9.419,9.419,0,0,0,4.088-.811,4.222,4.222,0,0,0,1.368-1A2.264,2.264,0,0,0,97.9,6.4a2.153,2.153,0,0,0-.358-1.189c-.35.455-1.811,2.257-5.739,2.557Zm.071-1.116a9.409,9.409,0,0,0,4.086-.813,4.251,4.251,0,0,0,1.371-1A2.145,2.145,0,0,0,97.357,1.9C96.3.7,94.285.04,91.931,0a9.433,9.433,0,0,0-4.086.809,4.333,4.333,0,0,0-1.368,1,2.275,2.275,0,0,0-.59,1.46,2.264,2.264,0,0,0,.568,1.475c1.046,1.208,3.072,1.862,5.421,1.9ZM87.3,2.086c.572-.7,2.346-1.376,4.422-1.342a8.028,8.028,0,0,1,3.474.735,2.842,2.842,0,0,1,.926.682.9.9,0,0,1,.252.59.9.9,0,0,1-.258.589c-.568.7-2.345,1.377-4.422,1.341a8.044,8.044,0,0,1-3.473-.735,2.971,2.971,0,0,1-.926-.68.917.917,0,0,1-.258-.6.9.9,0,0,1,.264-.585Z" transform="translate(-12.091 -0.003)" fill="url(#linear-gradient)"/>
            <path id="Shape-2" data-name="Shape" d="M23.434,9.389a2.954,2.954,0,0,0-2.363-.966H16.42l-.346,1.761h4.651a1.378,1.378,0,0,1,1.145.509,1.474,1.474,0,0,1,.267,1.249l-.07.3-.023.209H17.737a4.311,4.311,0,0,0-2.767.995,4.2,4.2,0,0,0-1.54,2.524l-.045.185a2.838,2.838,0,0,0,.5,2.524,2.867,2.867,0,0,0,2.35.995h6.089l1.645-7.825A2.739,2.739,0,0,0,23.434,9.389Zm-2.524,8.527H16.6a1.451,1.451,0,0,1-1.171-.509,1.379,1.379,0,0,1-.266-1.251l.047-.185a2.055,2.055,0,0,1,.775-1.251,2.156,2.156,0,0,1,1.377-.509h4.283ZM33.893,8.423l-1.969,9.47H27.478a1.45,1.45,0,0,1-1.163-.5,1.361,1.361,0,0,1-.258-1.251l1.585-7.716H25.859l-1.6,7.71a2.815,2.815,0,0,0,.509,2.524,2.94,2.94,0,0,0,2.362,1.005H31.6l-.14.646a2.205,2.205,0,0,1-.8,1.239,2.11,2.11,0,0,1-1.354.517h-6.1l-.369,1.758h6.089A4.235,4.235,0,0,0,31.666,22.8a4.368,4.368,0,0,0,1.579-2.5L35.7,8.43Z" transform="translate(-1.872 -1.189)" fill="url(#linear-gradient-2)"/>
            <path id="Shape-3" data-name="Shape" d="M57.416,19.681h-6.09a2.875,2.875,0,0,1-2.35-.995,2.841,2.841,0,0,1-.5-2.524l.047-.185a4.194,4.194,0,0,1,1.539-2.524,4.316,4.316,0,0,1,2.769-.995h4.3l.025-.209.068-.3a1.474,1.474,0,0,0-.266-1.249,1.379,1.379,0,0,0-1.146-.509h-5.01l.346-1.766h5.011a2.96,2.96,0,0,1,2.362.961,2.742,2.742,0,0,1,.532,2.466ZM56,17.921l.742-3.7H52.46a2.161,2.161,0,0,0-1.377.509,2.067,2.067,0,0,0-.775,1.251l-.045.185a1.38,1.38,0,0,0,.266,1.251,1.448,1.448,0,0,0,1.169.509Z" transform="translate(-6.815 -1.189)" fill="#231f20"/>
            <path id="Path" d="M70.816,16.67a3.521,3.521,0,0,1-1.55,2.293,4.608,4.608,0,0,1-2.639.764H60.606l.371-1.76H67q1.782,0,2.037-1.292l.093-.416q.278-1.292-1.505-1.292H64.91a3.242,3.242,0,0,1-2.315-.765,2.255,2.255,0,0,1-.627-2.291l.093-.417A3.515,3.515,0,0,1,63.611,9.2a4.625,4.625,0,0,1,2.643-.779H72.3l-.348,1.761H65.907q-1.783,0-2.061,1.292l-.092.417q-.258,1.292,1.528,1.292H68a3.252,3.252,0,0,1,2.316.765,2.274,2.274,0,0,1,.6,2.292Z" transform="translate(-8.536 -1.189)" fill="#231f20"/>
            <path id="Path-2" data-name="Path" d="M81.011,18.981H78.19a2.905,2.905,0,0,1-2.362-1,2.827,2.827,0,0,1-.509-2.524l1.247-6.04H75.455l.388-1.809h1.111l.833-4.028H79.6l-.829,4.028h3.747l-.388,1.809H78.378l-1.251,6.042a1.394,1.394,0,0,0,.258,1.251,1.411,1.411,0,0,0,1.163.509h2.826Z" transform="translate(-10.596 -0.507)" fill="#231f20"/>
            <path id="Shape-4" data-name="Shape" d="M13.47,8.8a4.17,4.17,0,0,1-1.541,2.466,4.22,4.22,0,0,1-2.705,1H3.151L1.758,19.027H0L3.174,3.782h7.832a2.756,2.756,0,0,1,2.271,1,2.841,2.841,0,0,1,.517,2.466Zm-1.757,0,.319-1.55a1.362,1.362,0,0,0-1.393-1.735H4.567L3.513,10.534H9.585a2.079,2.079,0,0,0,1.346-.5A2.15,2.15,0,0,0,11.713,8.8Z" transform="translate(0 -0.535)" fill="url(#linear-gradient-3)"/>
            <path id="Path-3" data-name="Path" d="M53.034,5.343H45.657a2.326,2.326,0,0,0-2.182,1.765l-.69,3.371h4.6l-.367,1.783H42.436l-1.421,6.753H39.226L41.68,7.1a4.5,4.5,0,0,1,4.342-3.53H53.4Z" transform="translate(-5.525 -0.506)" fill="#231f20"/>
            <path id="Shape-5" data-name="Shape" d="M39.175,25.492h.517l1.434,3.328h-.677l-.31-.761H38.691l-.3.761h-.664Zm.753,2.059L39.411,26.2l-.517,1.355Z" transform="translate(-5.314 -3.593)" fill="#231f20"/>
            <path id="Shape-6" data-name="Shape" d="M43.43,25.492h1.181a2.584,2.584,0,0,1,.652.084,1.7,1.7,0,0,1,.593.28,1.45,1.45,0,0,1,.428.517,1.7,1.7,0,0,1,.165.788,1.6,1.6,0,0,1-.165.752,1.55,1.55,0,0,1-.428.517,1.809,1.809,0,0,1-.593.3,2.34,2.34,0,0,1-.652.1H43.43ZM44.513,28.3a1.988,1.988,0,0,0,.46-.054,1.2,1.2,0,0,0,.417-.183.978.978,0,0,0,.3-.35,1.177,1.177,0,0,0,.118-.559,1.249,1.249,0,0,0-.118-.583.935.935,0,0,0-.3-.353,1.12,1.12,0,0,0-.417-.174,2.307,2.307,0,0,0-.46-.048h-.494v2.3Z" transform="translate(-6.117 -3.593)" fill="#231f20"/>
            <path id="Shape-7" data-name="Shape" d="M47.612,25.492H48.7a2.438,2.438,0,0,1,.517.05,1.074,1.074,0,0,1,.394.171.784.784,0,0,1,.258.3,1.008,1.008,0,0,1,.089.443.96.96,0,0,1-.1.465.851.851,0,0,1-.279.3,1.255,1.255,0,0,1-.412.167,2.289,2.289,0,0,1-.5.052H48.2V28.82h-.592Zm1.006,1.452a1.728,1.728,0,0,0,.276-.021.762.762,0,0,0,.235-.076A.425.425,0,0,0,49.3,26.7a.45.45,0,0,0,.061-.244.388.388,0,0,0-.224-.384A.7.7,0,0,0,48.9,26a2,2,0,0,0-.266-.017H48.2v.955Z" transform="translate(-6.706 -3.593)" fill="#231f20"/>
            <path id="Shape-8" data-name="Shape" d="M50.764,27.132a1.864,1.864,0,0,1,.129-.722,1.586,1.586,0,0,1,.371-.548,1.634,1.634,0,0,1,.565-.348,1.991,1.991,0,0,1,.712-.129,2.024,2.024,0,0,1,.72.129,1.656,1.656,0,0,1,.57.348,1.575,1.575,0,0,1,.373.548,1.864,1.864,0,0,1,.129.722,1.838,1.838,0,0,1-.129.712,1.651,1.651,0,0,1-.373.554,1.692,1.692,0,0,1-.57.363,1.969,1.969,0,0,1-.72.129,1.938,1.938,0,0,1-.712-.129,1.645,1.645,0,0,1-.935-.917A1.838,1.838,0,0,1,50.764,27.132Zm.646,0a1.421,1.421,0,0,0,.081.491,1.155,1.155,0,0,0,.235.388,1.1,1.1,0,0,0,.363.258,1.146,1.146,0,0,0,.463.092,1.163,1.163,0,0,0,.465-.092,1.083,1.083,0,0,0,.366-.258,1.152,1.152,0,0,0,.234-.388,1.394,1.394,0,0,0,.083-.491,1.351,1.351,0,0,0-.083-.481,1.15,1.15,0,0,0-.233-.388,1.058,1.058,0,0,0-.362-.258,1.137,1.137,0,0,0-.47-.094,1.12,1.12,0,0,0-.468.094,1.079,1.079,0,0,0-.36.258,1.194,1.194,0,0,0-.233.388,1.38,1.38,0,0,0-.083.481Z" transform="translate(-7.15 -3.578)" fill="#231f20"/>
            <path id="Path-4" data-name="Path" d="M59.343,26.258A.751.751,0,0,0,59,26a1.147,1.147,0,0,0-.884.012,1.068,1.068,0,0,0-.364.258,1.136,1.136,0,0,0-.235.388,1.351,1.351,0,0,0-.083.481,1.456,1.456,0,0,0,.08.5,1.128,1.128,0,0,0,.227.388,1.034,1.034,0,0,0,.355.251,1.145,1.145,0,0,0,.465.09,1.034,1.034,0,0,0,.475-.106.922.922,0,0,0,.333-.28l.475.333a1.517,1.517,0,0,1-.541.432,1.727,1.727,0,0,1-.747.152,1.946,1.946,0,0,1-.717-.129,1.628,1.628,0,0,1-.929-.917,1.863,1.863,0,0,1-.129-.712,1.818,1.818,0,0,1,.138-.722,1.611,1.611,0,0,1,.388-.548,1.687,1.687,0,0,1,.571-.348,2.017,2.017,0,0,1,.716-.129,1.906,1.906,0,0,1,.333.031,1.672,1.672,0,0,1,.333.093,1.624,1.624,0,0,1,.3.158.978.978,0,0,1,.24.226Z" transform="translate(-7.998 -3.578)" fill="#231f20"/>
            <path id="Shape-9" data-name="Shape" d="M60.538,27.848a1.187,1.187,0,0,1,.1-.487,1.125,1.125,0,0,1,.646-.614,1.394,1.394,0,0,1,.96,0,1.125,1.125,0,0,1,.646.614,1.209,1.209,0,0,1,.1.487,1.225,1.225,0,0,1-.1.488,1.163,1.163,0,0,1-.258.379,1.2,1.2,0,0,1-.388.247,1.337,1.337,0,0,1-.96,0,1.2,1.2,0,0,1-.388-.247,1.163,1.163,0,0,1-.258-.379,1.2,1.2,0,0,1-.1-.488Zm.575,0a.928.928,0,0,0,.039.258.736.736,0,0,0,.12.235.619.619,0,0,0,.2.169.677.677,0,0,0,.583,0,.632.632,0,0,0,.2-.169.708.708,0,0,0,.119-.235.886.886,0,0,0,.04-.258.859.859,0,0,0-.04-.258.727.727,0,0,0-.119-.234.664.664,0,0,0-.786-.167.611.611,0,0,0-.2.167.757.757,0,0,0-.12.234.9.9,0,0,0-.039.258Z" transform="translate(-8.527 -3.758)" fill="#231f20"/>
            <path id="Path-5" data-name="Path" d="M66.724,26.662a.849.849,0,0,1,.379.078.742.742,0,0,1,.258.205.827.827,0,0,1,.149.291,1.244,1.244,0,0,1,.047.338v1.411h-.563V27.734a1.668,1.668,0,0,0-.014-.207.586.586,0,0,0-.062-.2.388.388,0,0,0-.129-.143.38.38,0,0,0-.218-.057.435.435,0,0,0-.226.057.506.506,0,0,0-.155.146.646.646,0,0,0-.089.2.852.852,0,0,0-.028.218v1.231H65.5V27.622a.579.579,0,0,0-.1-.35.366.366,0,0,0-.318-.14.438.438,0,0,0-.221.054.477.477,0,0,0-.152.138.667.667,0,0,0-.089.2.819.819,0,0,0-.031.224v1.24h-.563V26.727h.535v.363h.01a.646.646,0,0,1,.1-.16.8.8,0,0,1,.15-.137.736.736,0,0,1,.2-.1.8.8,0,0,1,.249-.036.775.775,0,0,1,.438.118.793.793,0,0,1,.267.311.8.8,0,0,1,.3-.318.857.857,0,0,1,.447-.111Z" transform="translate(-9.018 -3.758)" fill="#231f20"/>
            <path id="Shape-10" data-name="Shape" d="M69.442,26.728v.315h.014a.9.9,0,0,1,.111-.129.73.73,0,0,1,.167-.121,1.062,1.062,0,0,1,.224-.089.981.981,0,0,1,.279-.036,1.05,1.05,0,0,1,.791.344,1.173,1.173,0,0,1,.226.376,1.345,1.345,0,0,1,.08.466,1.361,1.361,0,0,1-.079.468,1.15,1.15,0,0,1-.221.381,1.072,1.072,0,0,1-.348.258,1.084,1.084,0,0,1-.463.1.981.981,0,0,1-.441-.1.745.745,0,0,1-.307-.269h-.009v1.424H68.9V26.728Zm1.316,1.12a.9.9,0,0,0-.039-.258.757.757,0,0,0-.12-.234.624.624,0,0,0-.2-.167.61.61,0,0,0-.287-.063.58.58,0,0,0-.278.066.722.722,0,0,0-.209.169.734.734,0,0,0-.129.235.819.819,0,0,0-.045.258.8.8,0,0,0,.045.258.735.735,0,0,0,.129.233.694.694,0,0,0,.209.167.646.646,0,0,0,.565,0,.632.632,0,0,0,.2-.169.737.737,0,0,0,.12-.235.927.927,0,0,0,.039-.26Z" transform="translate(-9.705 -3.758)" fill="#231f20"/>
            <path id="Shape-11" data-name="Shape" d="M73.741,28.7h-.014a.616.616,0,0,1-.273.247.919.919,0,0,1-.428.1,1.238,1.238,0,0,1-.284-.035.842.842,0,0,1-.273-.118.665.665,0,0,1-.207-.217.612.612,0,0,1-.083-.331.561.561,0,0,1,.143-.4.932.932,0,0,1,.369-.231,2.067,2.067,0,0,1,.5-.1q.275-.027.539-.027v-.056a.348.348,0,0,0-.152-.313.646.646,0,0,0-.364-.1.813.813,0,0,0-.344.076.925.925,0,0,0-.273.183l-.292-.344a1.278,1.278,0,0,1,.444-.267,1.492,1.492,0,0,1,.51-.09,1.248,1.248,0,0,1,.494.092.81.81,0,0,1,.307.221.775.775,0,0,1,.158.306,1.318,1.318,0,0,1,.045.338v1.372h-.527Zm-.009-.743H73.6q-.138,0-.287.012a1.292,1.292,0,0,0-.278.052.6.6,0,0,0-.212.114.251.251,0,0,0-.084.2.242.242,0,0,0,.035.129.258.258,0,0,0,.092.087.4.4,0,0,0,.129.048.755.755,0,0,0,.141.014.531.531,0,0,0,.593-.579Z" transform="translate(-10.167 -3.758)" fill="#231f20"/>
            <path id="Path-6" data-name="Path" d="M75.376,26.727h.536v.363h.01a.72.72,0,0,1,.258-.3.753.753,0,0,1,.439-.129.849.849,0,0,1,.379.078.742.742,0,0,1,.258.205.827.827,0,0,1,.149.291,1.244,1.244,0,0,1,.047.338v1.411h-.565V27.734a1.452,1.452,0,0,0-.014-.207.557.557,0,0,0-.061-.2.388.388,0,0,0-.129-.143.38.38,0,0,0-.218-.057.483.483,0,0,0-.235.054.517.517,0,0,0-.163.138.646.646,0,0,0-.1.2.775.775,0,0,0-.034.224v1.24h-.565Z" transform="translate(-10.616 -3.758)" fill="#231f20"/>
            <path id="Path-7" data-name="Path" d="M78.092,26.738h.63l.629,1.642h.01l.559-1.642h.588l-1.072,2.739a2.107,2.107,0,0,1-.129.275.791.791,0,0,1-.169.2.693.693,0,0,1-.233.129,1.081,1.081,0,0,1-.323.043,1.369,1.369,0,0,1-.143-.008.859.859,0,0,1-.147-.026l.043-.487a.6.6,0,0,0,.111.026.681.681,0,0,0,.1.006.456.456,0,0,0,.15-.021.246.246,0,0,0,.1-.066.455.455,0,0,0,.076-.111c.021-.044.045-.1.07-.155L79.058,29Z" transform="translate(-10.999 -3.768)" fill="#231f20"/>
          </g>
        </g>
      </g>
    </g>
  </g>
</svg>
