<svg xmlns="http://www.w3.org/2000/svg" width="47.432" height="30" viewBox="0 0 47.432 30">
  <g id="Group_8642" data-name="Group 8642" transform="translate(-430.338 -513)">
    <path id="Path_4" data-name="Path 4" d="M6.081,0h35.27a6.081,6.081,0,0,1,6.081,6.081V23.919A6.081,6.081,0,0,1,41.351,30H6.081A6.081,6.081,0,0,1,0,23.919V6.081A6.081,6.081,0,0,1,6.081,0Z" transform="translate(430.338 513)" fill="#fff"/>
    <g id="Group_5" data-name="Group 5" transform="translate(436.851 523.522)">
      <path id="path14519" d="M72.575,14.464H71.28a.373.373,0,0,0-.309.164l-1.786,2.631-.757-2.528a.374.374,0,0,0-.358-.267H66.8a.224.224,0,0,0-.212.3l1.426,4.185-1.341,1.892a.224.224,0,0,0,.183.354h1.293a.375.375,0,0,0,.307-.161l4.306-6.215a.224.224,0,0,0-.184-.352m-8.657,2.507a1.436,1.436,0,0,1-1.454,1.23A1,1,0,0,1,61.4,16.949a1.441,1.441,0,0,1,1.444-1.24,1.085,1.085,0,0,1,.859.351,1.109,1.109,0,0,1,.219.911m1.8-2.507H64.425a.224.224,0,0,0-.222.189l-.057.36-.09-.13a1.835,1.835,0,0,0-1.522-.54,2.962,2.962,0,0,0-2.876,2.591,2.432,2.432,0,0,0,.48,1.979,2.016,2.016,0,0,0,1.622.655,2.467,2.467,0,0,0,1.784-.737l-.058.358a.224.224,0,0,0,.222.259h1.16a.374.374,0,0,0,.369-.315l.7-4.41a.224.224,0,0,0-.222-.259m-7.731.031c-.147.966-.885.966-1.6.966h-.406l.285-1.8a.224.224,0,0,1,.221-.189h.186c.486,0,.944,0,1.181.276a.9.9,0,0,1,.131.75m-.31-2.52h-2.69a.374.374,0,0,0-.369.316l-1.088,6.9a.224.224,0,0,0,.221.259h1.285a.374.374,0,0,0,.369-.315l.294-1.861a.374.374,0,0,1,.369-.316h.851A2.763,2.763,0,0,0,59.976,14.4a2.072,2.072,0,0,0-.343-1.736,2.5,2.5,0,0,0-1.961-.687" transform="translate(-53.522 -11.976)" fill="#002f86"/>
      <path id="path14523" d="M136.382,12.165l-1.1,7.025a.224.224,0,0,0,.221.259h1.111a.374.374,0,0,0,.369-.316l1.089-6.9a.224.224,0,0,0-.222-.259H136.6a.224.224,0,0,0-.222.189m-3.314,4.807a1.436,1.436,0,0,1-1.454,1.23,1,1,0,0,1-1.067-1.253,1.441,1.441,0,0,1,1.444-1.24,1.085,1.085,0,0,1,.859.351,1.109,1.109,0,0,1,.219.911m1.8-2.507h-1.288a.224.224,0,0,0-.222.189l-.057.36-.09-.13a1.834,1.834,0,0,0-1.522-.54,2.962,2.962,0,0,0-2.876,2.591,2.432,2.432,0,0,0,.48,1.979,2.016,2.016,0,0,0,1.622.655,2.467,2.467,0,0,0,1.784-.737l-.058.358a.224.224,0,0,0,.222.259h1.16a.374.374,0,0,0,.369-.315l.7-4.41a.224.224,0,0,0-.222-.259m-7.731.031c-.147.966-.884.966-1.6.966h-.406l.285-1.8a.224.224,0,0,1,.221-.189h.186c.486,0,.944,0,1.181.276a.9.9,0,0,1,.131.75m-.31-2.52h-2.69a.374.374,0,0,0-.369.316l-1.088,6.9a.224.224,0,0,0,.221.259h1.381a.262.262,0,0,0,.258-.221l.309-1.956a.374.374,0,0,1,.369-.316h.851a2.763,2.763,0,0,0,3.062-2.557,2.072,2.072,0,0,0-.343-1.736,2.5,2.5,0,0,0-1.961-.687" transform="translate(-103.484 -11.976)" fill="#009cde"/>
    </g>
  </g>
</svg>
