<svg xmlns="http://www.w3.org/2000/svg" width="117" height="74" viewBox="0 0 117 74">
  <g id="Group_94" data-name="Group 94" transform="translate(-375 -513)">
    <path id="Path_4" data-name="Path 4" d="M15,0h87a15,15,0,0,1,15,15V59a15,15,0,0,1-15,15H15A15,15,0,0,1,0,59V15A15,15,0,0,1,15,0Z" transform="translate(375 513)" fill="#fff"/>
    <g id="Group_5" data-name="Group 5" transform="translate(-435.522 354.025)">
      <path id="path14519" d="M100.329,18.09H97.148a.916.916,0,0,0-.759.4L92,24.955l-1.859-6.21a.92.92,0,0,0-.88-.655H86.134a.551.551,0,0,0-.522.729l3.5,10.282L85.82,33.749a.551.551,0,0,0,.45.869h3.178a.92.92,0,0,0,.755-.395l10.578-15.269a.551.551,0,0,0-.452-.865M79.062,24.25a3.529,3.529,0,0,1-3.572,3.023A2.452,2.452,0,0,1,72.869,24.2a3.541,3.541,0,0,1,3.547-3.046,2.666,2.666,0,0,1,2.11.862,2.724,2.724,0,0,1,.537,2.238m4.411-6.16H80.308a.551.551,0,0,0-.545.465l-.139.885-.221-.32c-.686-.994-2.214-1.328-3.739-1.328A7.278,7.278,0,0,0,68.6,24.158a5.974,5.974,0,0,0,1.179,4.862,4.952,4.952,0,0,0,3.985,1.609,6.06,6.06,0,0,0,4.382-1.81L78,29.7a.551.551,0,0,0,.545.637H81.4a.918.918,0,0,0,.908-.775l1.711-10.834a.551.551,0,0,0-.545-.637m-18.992.076c-.361,2.372-2.173,2.372-3.926,2.372h-1l.7-4.429a.55.55,0,0,1,.544-.464h.458c1.193,0,2.32,0,2.9.679a2.206,2.206,0,0,1,.321,1.842m-.763-6.19H57.109a.919.919,0,0,0-.908.775L53.529,29.7a.551.551,0,0,0,.544.637h3.156a.918.918,0,0,0,.907-.775l.722-4.573a.918.918,0,0,1,.907-.775h2.091c4.354,0,6.867-2.106,7.523-6.283a5.09,5.09,0,0,0-.843-4.265c-.94-1.1-2.606-1.689-4.817-1.689" transform="translate(773 173)" fill="#002f86"/>
      <path id="path14523" d="M156.353,12.441,153.64,29.7a.551.551,0,0,0,.544.637h2.729a.918.918,0,0,0,.907-.775l2.675-16.947a.551.551,0,0,0-.545-.637H156.9a.55.55,0,0,0-.545.465M148.212,24.25a3.529,3.529,0,0,1-3.572,3.023,2.452,2.452,0,0,1-2.621-3.077,3.541,3.541,0,0,1,3.547-3.046,2.666,2.666,0,0,1,2.11.862,2.724,2.724,0,0,1,.537,2.238m4.411-6.16h-3.165a.551.551,0,0,0-.545.465l-.139.885-.222-.32c-.685-.994-2.213-1.328-3.738-1.328a7.278,7.278,0,0,0-7.064,6.366,5.974,5.974,0,0,0,1.179,4.862,4.952,4.952,0,0,0,3.985,1.609,6.06,6.06,0,0,0,4.382-1.81l-.141.879a.551.551,0,0,0,.545.637h2.85a.918.918,0,0,0,.908-.775l1.711-10.834a.551.551,0,0,0-.545-.637m-18.992.076c-.361,2.372-2.173,2.372-3.926,2.372h-1l.7-4.429a.55.55,0,0,1,.544-.464h.458c1.193,0,2.32,0,2.9.679a2.206,2.206,0,0,1,.321,1.842m-.763-6.19h-6.609a.919.919,0,0,0-.908.775L122.679,29.7a.551.551,0,0,0,.544.637h3.392a.643.643,0,0,0,.635-.542l.758-4.805a.918.918,0,0,1,.907-.775h2.091c4.354,0,6.867-2.106,7.523-6.283a5.09,5.09,0,0,0-.843-4.265c-.94-1.1-2.606-1.689-4.817-1.689" transform="translate(750.991 173)" fill="#009cde"/>
    </g>
  </g>
</svg>
