<svg xmlns="http://www.w3.org/2000/svg" width="117" height="74" viewBox="0 0 117 74">
  <g id="Group_129" data-name="Group 129" transform="translate(-376 -1767)">
    <g id="Group_114" data-name="Group 114" transform="translate(1 456)">
      <path id="Path_65" data-name="Path 65" d="M15,0h87a15,15,0,0,1,15,15V59a15,15,0,0,1-15,15H15A15,15,0,0,1,0,59V15A15,15,0,0,1,15,0Z" transform="translate(375 1311)" fill="#fff"/>
    </g>
    <g id="ubicross-paystack-app" transform="translate(390 1791.4)">
      <path id="a" d="M14.119,5.3H.838A.853.853,0,0,0,0,6.138V7.621a.853.853,0,0,0,.838.838H14.119a.853.853,0,0,0,.838-.838V6.138A.853.853,0,0,0,14.119,5.3Z" transform="translate(0 -0.249)" fill="#09a5db"/>
      <path id="b" d="M14.119,18.1H.838A.853.853,0,0,0,0,18.938v1.483a.853.853,0,0,0,.838.838H14.119a.853.853,0,0,0,.838-.838V18.938A.853.853,0,0,0,14.119,18.1Z" transform="translate(0 -4.796)" fill="#09a5db"/>
      <path id="a_1_" d="M14.119,5.3H.838A.853.853,0,0,0,0,6.138V7.621a.853.853,0,0,0,.838.838H14.119a.853.853,0,0,0,.838-.838V6.138A.853.853,0,0,0,14.119,5.3Z" transform="translate(0 -0.249)" fill="#09a5db"/>
      <path id="e" d="M42.914,10.66a3.78,3.78,0,0,0-1.225-.838A3.824,3.824,0,0,0,40.206,9.5a3.282,3.282,0,0,0-1.418.322,2.436,2.436,0,0,0-.774.58v-.258c0-.129-.064-.193-.129-.322a.492.492,0,0,0-.322-.129H35.951a.441.441,0,0,0-.451.451V20.782c0,.129.064.193.129.322a.492.492,0,0,0,.322.129h1.612c.129,0,.193-.064.322-.129a.492.492,0,0,0,.129-.322v-3.61a1.963,1.963,0,0,0,.838.58,5.022,5.022,0,0,0,1.354.258,3.824,3.824,0,0,0,1.483-.322,5.53,5.53,0,0,0,1.289-.838,3.681,3.681,0,0,0,.838-1.354,4.861,4.861,0,0,0,0-3.481,7.067,7.067,0,0,0-.9-1.354Zm-1.483,3.868a1.16,1.16,0,0,1-.387.58,1.16,1.16,0,0,1-.58.387,1.275,1.275,0,0,1-.709.129,1.623,1.623,0,0,1-1.289-.58,1.522,1.522,0,0,1-.387-.58,3.236,3.236,0,0,1-.129-.774,3.236,3.236,0,0,1,.129-.774,1.16,1.16,0,0,1,.387-.58,1.522,1.522,0,0,1,.58-.387,1.275,1.275,0,0,1,.709-.129,2.318,2.318,0,0,1,.709.129l.58.387a1.522,1.522,0,0,1,.387.58,2.771,2.771,0,0,1,.129.774A3.266,3.266,0,0,1,41.431,14.529Z" transform="translate(-12.613 -1.741)" fill="#1a3d5d"/>
      <path id="f" d="M57.888,9.758H56.276c-.129,0-.193.064-.322.129a.492.492,0,0,0-.129.322V10.4a6.852,6.852,0,0,0-.709-.58A3.282,3.282,0,0,0,53.7,9.5a3.824,3.824,0,0,0-1.483.322,4.03,4.03,0,0,0-1.289.838,3.84,3.84,0,0,0-.9,1.354,4.861,4.861,0,0,0,0,3.481,3.84,3.84,0,0,0,.9,1.354,3.435,3.435,0,0,0,1.289.838,3.824,3.824,0,0,0,1.483.322,3.282,3.282,0,0,0,1.418-.322,1.3,1.3,0,0,0,.709-.58V17.3a.441.441,0,0,0,.451.451h1.612c.129,0,.193-.064.322-.129a.483.483,0,0,0,.064-.322V10.209c0-.129-.064-.193-.129-.322A.335.335,0,0,0,57.888,9.758ZM55.7,14.464a1.16,1.16,0,0,1-.387.58,1.522,1.522,0,0,1-.58.387.923.923,0,0,1-.709.193,2.318,2.318,0,0,1-.709-.129l-.58-.387a1.522,1.522,0,0,1-.387-.58,2.742,2.742,0,0,1-.129-.709,3.236,3.236,0,0,1,.129-.774.939.939,0,0,1,.387-.58,1.522,1.522,0,0,1,.58-.387,1.275,1.275,0,0,1,.709-.129,2.318,2.318,0,0,1,.709.129l.58.387.387.58a2.771,2.771,0,0,1,.129.774A2.291,2.291,0,0,1,55.7,14.464Z" transform="translate(-17.658 -1.741)" fill="#1a3d5d"/>
      <path id="g" d="M83.838,13.668a2.415,2.415,0,0,0-.774-.451,5.371,5.371,0,0,0-.967-.258L80.872,12.7a1.212,1.212,0,0,1-.645-.258.355.355,0,0,1-.193-.322.329.329,0,0,1,.258-.322A1.17,1.17,0,0,1,81,11.67a2.059,2.059,0,0,1,.9.193,3.473,3.473,0,0,1,.838.451c.387.193.645.193.9-.064l.58-.645a.585.585,0,0,0,.193-.451.557.557,0,0,0-.193-.387A4.855,4.855,0,0,0,81.066,9.8a5.028,5.028,0,0,0-1.418.193,2.971,2.971,0,0,0-1.1.58,2.893,2.893,0,0,0-.709.838,2.7,2.7,0,0,0-.258,1.032,2.247,2.247,0,0,0,.58,1.612,2.919,2.919,0,0,0,1.612.774l1.289.258a2.143,2.143,0,0,1,.838.258.428.428,0,0,1,.258.322.466.466,0,0,1-.258.387,1.239,1.239,0,0,1-.774.193,2.92,2.92,0,0,1-1.032-.193,3.656,3.656,0,0,1-.838-.516l-.387-.193a.568.568,0,0,0-.516.129l-.709.516a.659.659,0,0,0-.258.645,1.416,1.416,0,0,0,.58.709,3.594,3.594,0,0,0,1.225.58,4.941,4.941,0,0,0,1.741.258,5.5,5.5,0,0,0,1.483-.193,3.273,3.273,0,0,0,1.16-.58,1.938,1.938,0,0,0,.709-.9,2.119,2.119,0,0,0,.258-1.1,2.153,2.153,0,0,0-.193-.967,1.123,1.123,0,0,0-.516-.774Z" transform="translate(-27.49 -1.848)" fill="#1a3d5d"/>
      <path id="h" d="M95.1,14.288a.592.592,0,0,0-.387-.258.916.916,0,0,0-.387.129l-.387.193c-.064,0-.193.064-.258.064H93.42c-.064,0-.129-.064-.193-.129a.89.89,0,0,1-.193-.258.956.956,0,0,1-.064-.451v-2.9H95.1a.441.441,0,0,0,.451-.451V9A.441.441,0,0,0,95.1,8.55H92.968v-2a.441.441,0,0,0-.451-.451H90.905a.441.441,0,0,0-.451.451v2h-.9A.441.441,0,0,0,89.1,9v1.225c0,.129.064.193.129.322a.492.492,0,0,0,.322.129h.9v3.481a2.208,2.208,0,0,0,.258,1.16,1.9,1.9,0,0,0,.645.774,2.382,2.382,0,0,0,.9.451,2.672,2.672,0,0,0,1.032.129,4.908,4.908,0,0,0,1.354-.193,2.808,2.808,0,0,0,1.032-.645.578.578,0,0,0,.064-.709l-.645-.838Z" transform="translate(-31.657 -0.533)" fill="#1a3d5d"/>
      <path id="i" d="M107.588,9.758h-1.612c-.129,0-.193.064-.322.129a.492.492,0,0,0-.129.322V10.4a6.851,6.851,0,0,0-.709-.58A3.282,3.282,0,0,0,103.4,9.5a3.824,3.824,0,0,0-1.483.322,4.03,4.03,0,0,0-1.289.838,3.84,3.84,0,0,0-.9,1.354,4.861,4.861,0,0,0,0,3.481,3.84,3.84,0,0,0,.9,1.354,3.435,3.435,0,0,0,1.289.838,3.824,3.824,0,0,0,1.483.322,3.282,3.282,0,0,0,1.418-.322,1.76,1.76,0,0,0,.774-.58V17.3a.441.441,0,0,0,.451.451h1.612a.441.441,0,0,0,.451-.451V10.209c0-.129-.064-.193-.129-.322a.916.916,0,0,0-.387-.129ZM105.4,14.464a1.16,1.16,0,0,1-.387.58,1.522,1.522,0,0,1-.58.387,1.388,1.388,0,0,1-.709.129,2.318,2.318,0,0,1-.709-.129l-.58-.387a1.522,1.522,0,0,1-.387-.58,2.742,2.742,0,0,1-.129-.709,3.236,3.236,0,0,1,.129-.774,1.16,1.16,0,0,1,.387-.58,1.522,1.522,0,0,1,.58-.387,1.275,1.275,0,0,1,.709-.129,2.318,2.318,0,0,1,.709.129l.58.387a1.522,1.522,0,0,1,.387.58,2.77,2.77,0,0,1,.129.774A.9.9,0,0,1,105.4,14.464Z" transform="translate(-35.316 -1.741)" fill="#1a3d5d"/>
      <path id="j" d="M121.672,15.4l-.9-.709a.535.535,0,0,0-.516-.129.644.644,0,0,0-.322.258,6.42,6.42,0,0,1-.709.645,1.872,1.872,0,0,1-.9.193,2.318,2.318,0,0,1-.709-.129,3.027,3.027,0,0,1-.58-.387,3.027,3.027,0,0,1-.387-.58,2.742,2.742,0,0,1-.129-.709,3.236,3.236,0,0,1,.129-.774.939.939,0,0,1,.387-.58,1.522,1.522,0,0,1,.58-.387,1.388,1.388,0,0,1,.709-.129,1.872,1.872,0,0,1,.9.193,3.213,3.213,0,0,1,.709.645.644.644,0,0,0,.322.258.568.568,0,0,0,.516-.129l.9-.709a.644.644,0,0,0,.258-.322.4.4,0,0,0-.064-.451,4.768,4.768,0,0,0-1.418-1.354,4.781,4.781,0,0,0-2.192-.516,4.843,4.843,0,0,0-1.676.322,4.149,4.149,0,0,0-2.256,2.256,4.519,4.519,0,0,0,0,3.352,3.84,3.84,0,0,0,.9,1.354,4.527,4.527,0,0,0,3.03,1.225,4.781,4.781,0,0,0,2.192-.516,3.208,3.208,0,0,0,1.418-1.354.956.956,0,0,0,.064-.451A.592.592,0,0,0,121.672,15.4Z" transform="translate(-40.503 -1.776)" fill="#1a3d5d"/>
      <path id="k" d="M135.072,15.3l-2.579-3.739,2.192-2.837a.407.407,0,0,0,.064-.451.371.371,0,0,0-.387-.258h-1.741c-.129,0-.193,0-.258.064a.5.5,0,0,0-.258.258l-1.741,2.385h-.451V5.051c0-.129-.064-.193-.129-.322a.492.492,0,0,0-.322-.129h-1.612c-.129,0-.193.064-.322.129a.492.492,0,0,0-.129.322V15.56a.441.441,0,0,0,.451.451h1.612a.441.441,0,0,0,.451-.451V12.788h.451l1.934,2.9a.677.677,0,0,0,.58.322h1.805a.464.464,0,0,0,.451-.258.566.566,0,0,0-.064-.451Z" transform="translate(-45.264)" fill="#1a3d5d"/>
      <path id="l" d="M72.161,9.9H70.356a.916.916,0,0,0-.387.129.492.492,0,0,0-.129.322l-1.354,4.9h-.322l-1.418-4.9c0-.129-.064-.193-.129-.322a.492.492,0,0,0-.322-.129h-1.87c-.258,0-.387.064-.451.258a.545.545,0,0,0,0,.451l2.321,6.9a.89.89,0,0,0,.193.258.492.492,0,0,0,.322.129h.967l-.064.193-.258.645a1.4,1.4,0,0,1-.322.516.732.732,0,0,1-.516.193,1.517,1.517,0,0,1-.516-.129,1.616,1.616,0,0,1-.451-.258.916.916,0,0,0-.387-.129h0a.4.4,0,0,0-.387.258l-.58.838c-.258.387-.129.58.064.709a3.515,3.515,0,0,0,1.1.645,4.582,4.582,0,0,0,1.354.193,3.044,3.044,0,0,0,2.063-.645,3.989,3.989,0,0,0,1.16-1.805l2.643-8.575a.545.545,0,0,0,0-.451C72.483,10.029,72.355,9.9,72.161,9.9Z" transform="translate(-22.712 -1.883)" fill="#1a3d5d"/>
      <path id="c" d="M8.317,24.5H.838A.853.853,0,0,0,0,25.338v1.483a.853.853,0,0,0,.838.838H8.317a.853.853,0,0,0,.838-.838V25.338a.853.853,0,0,0-.838-.838Z" transform="translate(0 -7.07)" fill="#09a5db"/>
      <path id="d" d="M14.957,11.7H.838A.853.853,0,0,0,0,12.538v1.483a.853.853,0,0,0,.838.838H14.957a.853.853,0,0,0,.838-.838V12.538a.9.9,0,0,0-.838-.838Z" transform="translate(0 -2.523)" fill="#09a5db"/>
    </g>
  </g>
</svg>
