<?xml version="1.0" encoding="utf-8"?>
<!-- Generator: Adobe Illustrator 21.0.2, SVG Export Plug-In . SVG Version: 6.00 Build 0)  -->
<svg version="1.1" id="Layer_1" xmlns="http://www.w3.org/2000/svg" xmlns:xlink="http://www.w3.org/1999/xlink" x="0px" y="0px"
	 viewBox="0 0 123.6 30.2" style="enable-background:new 0 0 123.6 30.2;" xml:space="preserve">
<style type="text/css">
	.st0{fill:#0EA6DB;}
	.st1{fill:#011B33;}
	.st2{fill:#09A4DA;}
	.st3{fill:#0FA6DB;}
	.st4{fill:#000016;}
	.st5{fill:#373F53;}
</style>
<g>
	<path class="st0" d="M21.8,3.5c0.7,0.7,1.1,3.3,0.6,4.1c-0.3,0.5-0.8,0.6-1.3,0.6c-6.5,0-12.9,0-19.4,0C0.6,8.2,0,7.7,0.1,6.6
		c0-1.1-0.3-2.2,0.7-3.1C7.8,3.5,14.8,3.5,21.8,3.5z"/>
	<path class="st1" d="M116.2,13.3c0.5,0.2,0.7-0.1,1-0.4c0.3-0.4,0.6-0.7,0.8-1.1c0.8-1.7,2.1-2.2,3.8-1.9c0.3,0,0.7-0.2,0.9,0.2
		c0.2,0.4,0,0.7-0.3,1.1c-0.7,0.9-1.5,1.9-2.2,2.8c-0.2,0.2-0.5,0.4-0.2,0.8c1.2,1.6,2,3.3,3.4,4.7c0,0.2,0,0.5,0,0.7
		c-2,0.8-3.6,0.3-4.6-1.3c-0.5-0.7-1-1.4-1.4-2.2c-0.3-0.4-0.5-0.7-1.1-0.6c-0.6,1.3-0.1,2.7-0.2,4.1c-1,0.3-1.9,0.3-2.9,0
		c0-5,0-9.9,0-14.9c1,0,1.9,0,2.9,0c0,2.2,0,4.4,0,6.6C116,12.5,115.8,12.9,116.2,13.3z"/>
	<path class="st1" d="M34.9,24.7c-0.9,0.9-2,0.4-3.1,0.3c0-5,0-10.1,0-15.1c1.1-0.3,2.1-0.8,3.1,0.3c0.2,0.3,0.3,0,0.4-0.1
		c1-0.8,2.3-0.7,3.4-0.7c2.6,0.2,4.7,2.7,4.5,5.6c-0.2,3.9-2.7,6.1-6.3,5.6c-0.8-0.1-1.5-0.3-2-0.9C34.4,21.4,34.7,23.1,34.9,24.7z
		 M35,15c0,1.7,0.9,2.7,2.5,2.7c1.4,0,2.4-1.1,2.5-2.5c0-1.5-1.1-2.6-2.5-2.6C36.1,12.5,35,13.6,35,15z"/>
	<path class="st2" d="M11.9,14.3c-3.3,0-6.7,0-10,0c-1.4,0-1.8-0.3-1.8-1.7c0-0.4,0-0.8,0-1.2c0-1.3,0.4-1.7,1.7-1.7
		c6.8,0,13.6,0,20.4,0c1.3,0,1.6,0.3,1.6,1.6c0.1,2.9,0,3-2.9,3C17.9,14.3,14.9,14.3,11.9,14.3z"/>
	<path class="st1" d="M68.2,11.1c-1,4.1-2.3,8.1-3.7,12c-1,2.6-4.8,3.3-7,1.7c-0.7-0.5-0.6-1-0.2-1.6c0.5-0.6,0.8-1.6,1.9-0.8
		c1,0.7,1.8,0.4,2.2-0.6c0.4-0.8,0.6-1.4-0.7-1.3c-0.5,0.1-0.8-0.2-0.9-0.7c-1-3-2-6-3-9c-0.1-0.2-0.2-0.6-0.1-0.7
		c0.8-0.7,1.9-0.3,2.8-0.4c0.6-0.1,0.9,0.1,1,0.7c0.5,1.9,1.1,3.7,1.6,5.6c0.1,0.3,0.1,0.9,0.5,0.9c0.4,0,0.3-0.5,0.4-0.9
		c0.7-2,0.9-4.1,1.8-6.1c0.7,0,1.4,0.1,2,0C68,9.8,68.3,10.2,68.2,11.1z"/>
	<path class="st2" d="M11.5,15.9c3.1,0,6.3,0,9.4,0c1.4,0,1.6,0.3,1.6,1.6c0,3,0,3-3,3c-5.8,0-11.7,0-17.5,0c-1.6,0-2-0.3-2-1.9
		c0-0.4,0-0.7,0-1.1c0-1.2,0.4-1.6,1.7-1.6C5,15.8,8.3,15.9,11.5,15.9z"/>
	<path class="st1" d="M99.8,10.1c0.2,3.3,0.1,6.6,0,9.9c-0.2,0.1-0.3,0.2-0.3,0.4c-1-0.2-2.2,0.6-3.1-0.5c-0.1-0.2-0.3,0.1-0.5,0.2
		c-2.8,1.5-6.1,0.3-7.4-2.7c-1.3-3,0.2-6.8,3.1-7.6c1.4-0.4,3-0.7,4.4,0.3c0.4,0.3,0.4,0.1,0.7-0.1c0.8-0.6,1.8-0.2,2.8-0.2
		C99.5,9.9,99.6,10.1,99.8,10.1z M93.8,17.7c1.5,0,2.7-1,2.8-2.5c0.1-1.4-1.1-2.6-2.5-2.7c-1.4,0-2.4,1-2.6,2.4
		C91.4,16.1,92.5,17.7,93.8,17.7z"/>
	<path class="st1" d="M56,15.2c0,1.4,0,2.9,0,4.3c0,0.8-0.3,1.2-1,1c-0.8-0.2-1.9,0.6-2.4-0.6c0,0-0.3,0.1-0.4,0.2
		c-4,2-8.1-0.7-8-5.1c0.1-2.1,0.9-4,2.9-4.8c1.5-0.6,3.1-1.3,4.7,0c0.2,0.1,0.5,0.3,1-0.1c0.7-0.6,1.8-0.3,2.7-0.2
		c0.5,0,0.4,0.6,0.4,1C56,12.2,56,13.7,56,15.2z M52.6,15.2c0.2-1.2-1.2-2.7-2.5-2.7c-1.5,0-2.5,1-2.6,2.6c-0.1,1.4,1.1,2.6,2.3,2.6
		C51.4,17.7,52.6,16.6,52.6,15.2z"/>
	<path class="st1" d="M73.5,20.7c-1.4,0.1-2.6-0.3-3.8-1c-0.6-0.4-1.4-0.8-1-1.7c0.4-0.9,1.8-1.3,2.6-0.7c0.9,0.6,1.7,1,2.8,0.8
		c0.4-0.1,0.8-0.3,0.8-0.7c0-0.4-0.4-0.6-0.7-0.6c-0.8-0.2-1.7-0.4-2.6-0.6c-1.8-0.4-2.7-1.4-2.8-2.9c-0.1-1.7,0.8-3.1,2.5-3.5
		c2-0.4,4.2-0.8,6.1,0.6c0.5,0.3,1.1,0.7,0.6,1.3c-0.5,0.6-0.8,1.8-2,1.2c-0.8-0.4-1.6-0.9-2.6-0.8c-0.5,0-1.1,0-1.1,0.6
		c0,0.6,0.7,0.9,1.1,0.9c1.1-0.1,2.1,0.4,3.1,0.7c1.2,0.3,1.8,1.3,2,2.4c0.2,1.3-0.4,2.4-1.5,3.2C75.9,20.6,74.7,20.8,73.5,20.7z"/>
	<path class="st1" d="M106.8,20.8c-2.8,0-5.1-1.6-5.7-4.1c-0.7-2.7,0.3-5.2,2.7-6.5c2.5-1.4,6.1-0.7,7.7,1.5c0.2,0.3,0.3,0.6,0.1,1
		c-0.6,1.2-2.1,1.5-3,0.6c-0.9-0.8-2.2-0.9-3.2-0.3c-1,0.7-1.4,2.1-0.9,3.3c0.5,1,1.7,1.6,2.9,1.4c0.6-0.1,1-0.5,1.4-0.9
		c0.7-0.6,1.6-0.4,2.6,0.6c0.7,0.7,0.2,1.1-0.3,1.6C110,20.2,108.5,20.8,106.8,20.8z"/>
	<path class="st1" d="M84.3,17.1c0.5,0.7,1.1,0.6,1.8,0.2c0.4-0.2,0.8-0.4,1.1,0.2c0.3,0.7,1.4,1.2,0.7,2c-1.1,1.3-2.7,1.4-4.2,1.1
		c-1.3-0.2-2.4-0.9-2.6-2.4c0-1.1,0.1-2.1,0-3.2c0-0.8,0.3-1.7-0.2-2.5c-2-0.1-1.9-0.1-1.9-1.9c0-0.8,0.3-1.1,1.1-1
		c0.7,0.1,1-0.2,0.9-0.8c0-0.1,0-0.2,0-0.4c0-2.3,0.3-2.5,2.6-2.1c0.6,0.1,0.7,0.5,0.7,1c0,0.8,0,1.6,0,2.3c0.9,0,1.7,0,2.6,0
		c0.9-0.1,1,0.5,1,1.2c-0.1,0.7,0.3,1.6-0.9,1.7c-0.9,0-1.7,0-2.6,0C83.8,14.1,83.7,15.6,84.3,17.1z"/>
	<path class="st3" d="M7,26.7c-1.7,0-3.5,0-5.2,0c-1.2,0-1.6-0.4-1.7-1.6c-0.1-3,0-3.1,3-3.1c3,0,6,0,8.9,0c1.5,0,1.8,0.4,1.8,1.8
		c0,2.8,0,2.9-2.8,2.9C9.7,26.7,8.4,26.7,7,26.7z"/>
	<path class="st4" d="M31.9,10c0,5,0,10.1,0,15.1c-0.3-0.2-0.2-0.5-0.2-0.7c0-4.6,0-9.1,0-13.7C31.6,10.4,31.4,10,31.9,10z"/>
	<path class="st1" d="M113.1,5.4c0,5,0,9.9,0,14.9c-0.2-0.1-0.2-0.3-0.2-0.5c0-4.8,0-9.6,0-14.4C113,5.4,113,5.4,113.1,5.4z"/>
	<path class="st1" d="M116.2,13.3c-0.4-0.4-0.2-0.8-0.2-1.2c0-2.2,0-4.4,0-6.6c0,0,0.1,0,0.1,0l0.1,0C116.2,8,116.2,10.7,116.2,13.3
		z"/>
	<path class="st1" d="M80.8,12.6c0.5,0.8,0.2,1.7,0.2,2.5c0.1,1.1,0,2.1,0,3.2c-0.5-1.3-0.1-2.7-0.2-4.1
		C80.8,13.6,80.8,13.1,80.8,12.6z"/>
	<path class="st4" d="M34.9,24.7c-0.2-1.7-0.5-3.3,0.1-5C34.8,21.4,35.1,23.1,34.9,24.7z"/>
	<path class="st1" d="M84.3,17.1c-0.5-1.5-0.5-3-0.1-4.5C84.2,14.1,84.2,15.6,84.3,17.1z"/>
	<path class="st4" d="M68.2,11.1c0.1-0.8-0.3-1.2-1.2-1.1c-0.7,0.1-1.3,0-2,0c1-0.5,2.1-0.3,3.1-0.2C68.8,9.9,68.5,10.6,68.2,11.1z"
		/>
	<path class="st1" d="M116,20.3c0.1-1.4-0.3-2.8,0.2-4.1C116,17.5,116.5,18.9,116,20.3z"/>
	<path class="st5" d="M99.8,10.1c-0.2-0.1-0.3-0.2-0.3-0.4C99.7,9.7,99.8,9.9,99.8,10.1z"/>
	<path class="st1" d="M99.5,20.4c0-0.2,0.1-0.4,0.3-0.4C99.8,20.2,99.7,20.4,99.5,20.4z"/>
</g>
</svg>
