<svg xmlns="http://www.w3.org/2000/svg" width="10" height="10" viewBox="0 0 10 10">
  <g id="noun_edit_1372806" transform="translate(-6.4 -6.397)">
    <g id="Group" transform="translate(6.4 6.397)">
      <path id="Compound_Path" data-name="Compound Path" d="M14.319,6.531a.459.459,0,0,0-.649,0L7.147,13.055a.459.459,0,0,0-.122.218l-.612,2.558a.459.459,0,0,0,.553.553l2.558-.611a.459.459,0,0,0,.218-.122l6.524-6.525a.459.459,0,0,0,0-.649ZM8.146,13.353l4.217-4.217,1.3,1.3L9.444,14.652Zm-.409.888.819.819-1.077.258ZM14.31,9.792l-1.3-1.3.983-.983,1.3,1.3Z" transform="translate(-6.4 -6.397)" fill="#77808d"/>
    </g>
  </g>
</svg>
