<svg xmlns="http://www.w3.org/2000/svg" xmlns:xlink="http://www.w3.org/1999/xlink" width="47.432" height="30" viewBox="0 0 47.432 30">
  <defs>
    <clipPath id="clip-path">
      <path id="path10273" d="M1819.986-499.176c-.017,1.319,1.175,2.055,2.073,2.492.923.449,1.232.737,1.229,1.138-.007.615-.736.886-1.418.9a4.95,4.95,0,0,1-2.433-.578l-.429,2.007a7.135,7.135,0,0,0,2.634.486c2.488,0,4.116-1.228,4.125-3.133.01-2.417-3.343-2.551-3.32-3.631.008-.328.32-.677,1.005-.766a4.461,4.461,0,0,1,2.336.409l.416-1.941a6.348,6.348,0,0,0-2.217-.407c-2.342,0-3.989,1.245-4,3.027m10.221-2.86a1.08,1.08,0,0,0-1.008.672l-3.554,8.486h2.486l.495-1.367h3.038l.287,1.367h2.191l-1.912-9.158h-2.023m.348,2.474.718,3.439h-1.965l1.248-3.439m-13.583-2.474-1.96,9.158h2.369l1.959-9.158h-2.368m-3.5,0L1811-495.8l-1-5.3a1.1,1.1,0,0,0-1.093-.933h-4.031l-.056.266a9.863,9.863,0,0,1,2.338.779,1,1,0,0,1,.563.8l1.889,7.308h2.5l3.839-9.158h-2.488" transform="translate(-1804.822 502.203)"/>
    </clipPath>
    <linearGradient id="linear-gradient" y1="0.373" x2="0.008" y2="0.373" gradientUnits="objectBoundingBox">
      <stop offset="0" stop-color="#222357"/>
      <stop offset="1" stop-color="#254aa5"/>
    </linearGradient>
  </defs>
  <g id="Group_17" data-name="Group 17" transform="translate(0)">
    <path id="Path_3" data-name="Path 3" d="M6.081,0h35.27a6.081,6.081,0,0,1,6.081,6.081V23.919A6.081,6.081,0,0,1,41.351,30H6.081A6.081,6.081,0,0,1,0,23.919V6.081A6.081,6.081,0,0,1,6.081,0Z" transform="translate(0 0)" fill="#fff"/>
    <g id="layer1" transform="translate(8.873 10.293)">
      <g id="g10267" transform="translate(0 0)">
        <g id="g10269" clip-path="url(#clip-path)">
          <g id="g10275" transform="translate(-3.07 -9.508)">
            <path id="path10283" d="M0-170.066,28.889-180.7l6.572,17.846L6.572-152.22" transform="translate(0 180.705)" fill="url(#linear-gradient)"/>
          </g>
        </g>
      </g>
    </g>
  </g>
</svg>
