<svg xmlns="http://www.w3.org/2000/svg" xmlns:xlink="http://www.w3.org/1999/xlink" width="117" height="74" viewBox="0 0 117 74">
  <defs>
    <clipPath id="clip-path">
      <path id="path10273" d="M1840.275-495.126c-.039,3.084,2.748,4.8,4.848,5.827,2.157,1.05,2.882,1.723,2.873,2.662-.016,1.437-1.721,2.071-3.316,2.1a11.572,11.572,0,0,1-5.687-1.352l-1,4.691a16.678,16.678,0,0,0,6.159,1.136c5.817,0,9.623-2.872,9.644-7.324.023-5.65-7.816-5.963-7.762-8.489.019-.766.749-1.583,2.351-1.791a10.427,10.427,0,0,1,5.461.957l.974-4.539a14.846,14.846,0,0,0-5.183-.951c-5.476,0-9.327,2.911-9.358,7.077m23.9-6.686a2.524,2.524,0,0,0-2.357,1.571L1853.5-480.4h5.813l1.157-3.2h7.1l.671,3.2h5.124l-4.471-21.412h-4.73m.813,5.784,1.678,8.04h-4.595l2.917-8.04m-31.758-5.784-4.582,21.412h5.539l4.58-21.412h-5.537m-8.195,0-5.766,14.574-2.332-12.392a2.582,2.582,0,0,0-2.554-2.182h-9.426l-.132.622a23.062,23.062,0,0,1,5.465,1.822,2.344,2.344,0,0,1,1.315,1.881l4.417,17.087h5.854l8.975-21.412h-5.817" transform="translate(-1804.822 502.203)"/>
    </clipPath>
    <linearGradient id="linear-gradient" y1="0.373" x2="0.008" y2="0.373" gradientUnits="objectBoundingBox">
      <stop offset="0" stop-color="#222357"/>
      <stop offset="1" stop-color="#254aa5"/>
    </linearGradient>
  </defs>
  <g id="Group_17" data-name="Group 17" transform="translate(-561 -595)">
    <path id="Path_3" data-name="Path 3" d="M15,0h87a15,15,0,0,1,15,15V59a15,15,0,0,1-15,15H15A15,15,0,0,1,0,59V15A15,15,0,0,1,15,0Z" transform="translate(561 595)" fill="#fff"/>
    <g id="layer1" transform="translate(250.031 83.576)">
      <g id="g10267" transform="translate(334.703 537.424)">
        <g id="g10269" transform="translate(0 0)" clip-path="url(#clip-path)">
          <g id="g10275" transform="translate(-7.179 -22.231)">
            <path id="path10283" d="M0-155.831,67.543-180.7l15.366,41.724L15.366-114.107" transform="translate(0 180.705)" fill="url(#linear-gradient)"/>
          </g>
        </g>
      </g>
    </g>
  </g>
</svg>
