<svg xmlns="http://www.w3.org/2000/svg" width="47.432" height="30" viewBox="0 0 47.432 30">
  <g id="Group_8643" data-name="Group 8643" transform="translate(-580.473 -537.984)">
    <g id="Group_76" data-name="Group 76" transform="translate(580.473 537.984)">
      <path id="Path_65" data-name="Path 65" d="M6.081,0h35.27a6.081,6.081,0,0,1,6.081,6.081V23.919A6.081,6.081,0,0,1,41.351,30H6.081A6.081,6.081,0,0,1,0,23.919V6.081A6.081,6.081,0,0,1,6.081,0Z" transform="translate(0)" fill="#fff"/>
    </g>
    <g id="Group_74" data-name="Group 74" transform="translate(586.178 550.138)">
      <path id="Path_77" data-name="Path 77" d="M-4.432,1628.607l.877,2.4.939-2.878h.523l-1.262,3.416v1.846h-.492v-1.846l-1.123-2.939Z" transform="translate(4.971 -1628.13)" fill="#fe0000"/>
      <path id="Path_78" data-name="Path 78" d="M21.691,1649.753l.2.446s.454-.4.715-.188.207.837.207.837a.86.86,0,0,0-.63-.116c-.4.062-.626.551-.663.829a1.324,1.324,0,0,0,.352,1.206.786.786,0,0,0,.887,0,1.334,1.334,0,0,0,.166-.17v.268h.36V1650.8a2.066,2.066,0,0,0-.173-.9.83.83,0,0,0-.837-.311A2.726,2.726,0,0,0,21.691,1649.753Z" transform="translate(-19.044 -1647.583)"/>
      <path id="Path_79" data-name="Path 79" d="M122.308,1650.4l.674,1.5-.719,1.7h.483l.437-1.256.483,1.256h.483l-.71-1.7.71-1.5h-.483l-.428,1.111-.446-1.111Z" transform="translate(-110.446 -1648.328)"/>
      <path id="Path_81" data-name="Path 81" d="M74.323,1633.121v4.828h-.318l-.119-.221a.846.846,0,0,1-.835.259c-.49-.146-.679-.76-.717-1.212a2.8,2.8,0,0,1,.334-1.729.948.948,0,0,1,.932-.361.96.96,0,0,1,.237.092v-1.654Z" transform="translate(-65.144 -1632.658)"/>
      <path id="Path_82" data-name="Path 82" d="M47.846,1649.748v3.266H48.3v-2.686a.5.5,0,0,1,.446-.173c.328.009.392.155.392.665v2.195h.455v-2.686a.558.558,0,0,0-.319-.519c-.355-.2-.974.191-.974.191v-.252Z" transform="translate(-42.941 -1647.74)"/>
      <path id="Path_83" data-name="Path 83" d="M27.553,1666.831c0,.137,0,1.018,0,1.018a.51.51,0,0,1-.659,0,.724.724,0,0,1-.182-.562,1.062,1.062,0,0,1,.112-.456C27.02,1666.482,27.553,1666.695,27.553,1666.831Z" transform="translate(-23.767 -1663.064)" fill="#fff"/>
      <path id="Path_84" data-name="Path 84" d="M26.849,1667.438c0,.1-.021,2.242-.021,2.242a.481.481,0,0,1-.763-.174,2.012,2.012,0,0,1-.195-1.086,2.2,2.2,0,0,1,.141-.729C26.351,1667.028,26.844,1667.335,26.849,1667.438Z" transform="translate(-18.177 -1664.848)" fill="#fff"/>
      <g id="Group_70" data-name="Group 70" transform="translate(9.703 2.008)">
        <path id="Path_80" data-name="Path 80" d="M100.012,1651.493h1.3v-.592a1.415,1.415,0,0,0-.373-.974.794.794,0,0,0-1.275.481,3.441,3.441,0,0,0,0,2.048.949.949,0,0,0,.787.565,3.1,3.1,0,0,0,.808-.074v-.345a1.758,1.758,0,0,1-.883-.045.847.847,0,0,1-.366-.6A1.617,1.617,0,0,1,100.012,1651.493Z" transform="translate(-99.511 -1649.748)"/>
        <path id="Path_85" data-name="Path 85" d="M105.14,1654.663h.787a3.546,3.546,0,0,0-.046-.435c-.031-.2-.067-.429-.27-.5,0,0-.3-.07-.372.3S105.14,1654.663,105.14,1654.663Z" transform="translate(-104.617 -1653.356)" fill="#fff"/>
      </g>
    </g>
    <g id="Group_75" data-name="Group 75" transform="translate(601.45 548.104)">
      <path id="Path_89" data-name="Path 89" d="M159.956,2012.99v9.827h18.169l2.971-4.856-2.971-4.971Z" transform="translate(-159.956 -2012.99)" fill="#fecb00"/>
      <path id="Path_90" data-name="Path 90" d="M170.415,2022.218v8.056h16.627l2.355-4.015-2.355-4Z" transform="translate(-169.351 -2021.361)" fill="#fff"/>
    </g>
    <g id="Group_73" data-name="Group 73" transform="translate(605.019 550.95)">
      <path id="Path_87" data-name="Path 87" d="M47.846,1649.543v2.3h.38V1650.3s.338-.466.651-.465.462.106.462.465v1.545h.392v-1.679a.669.669,0,0,0-.582-.62.951.951,0,0,0-.923.336v-.336Z" transform="translate(-41.63 -1648.457)"/>
      <g id="Group_72" data-name="Group 72" transform="translate(8.693 1.087)">
        <path id="Path_80-2" data-name="Path 80" d="M99.952,1650.971h1.57v-.415a.8.8,0,0,0-.416-.683,1.1,1.1,0,0,0-1.422.337,1.569,1.569,0,0,0,0,1.435,1.021,1.021,0,0,0,.946.421,1.45,1.45,0,0,0,.848-.35l-.166-.134a1.417,1.417,0,0,1-.874.173.606.606,0,0,1-.445-.466A1.15,1.15,0,0,1,99.952,1650.971Z" transform="translate(-99.511 -1649.748)"/>
      </g>
      <path id="Path_80-3" data-name="Path 80" d="M100.09,1651.07h1.5v-.448a.875.875,0,0,0-.431-.738,1.111,1.111,0,0,0-1.473.364,1.761,1.761,0,0,0,0,1.551,1.184,1.184,0,0,0,.909.428,2.147,2.147,0,0,0,.913-.29l-.26-.249s-.34.369-.652.249a.869.869,0,0,1-.509-.52A.81.81,0,0,1,100.09,1651.07Z" transform="translate(-90.829 -1649.033)" fill="none"/>
      <path id="Path_85-2" data-name="Path 85" d="M105.1,1654.183h1.212a.847.847,0,0,0-.119-.371.52.52,0,0,0-.448-.28.548.548,0,0,0-.511.245C105.055,1654.064,105.1,1654.183,105.1,1654.183Z" transform="translate(-95.965 -1652.185)" fill="#fff"/>
      <path id="Path_86" data-name="Path 86" d="M202.913,1762.434h.474v-2.77l.888,2.142h.26l.888-2.142v2.77h.438v-3.385h-.616l-.829,2.1-.876-2.1h-.627Z" transform="translate(-202.913 -1759.049)"/>
      <path id="Path_88" data-name="Path 88" d="M316.586,1875.748h.455l.683,1.652.555-1.652h.428l-.783,2.18s-.173.833-.473.969a1.74,1.74,0,0,1-.756.087v-.318s.508.041.636-.137a.773.773,0,0,0,.12-.737C317.333,1877.537,316.586,1875.748,316.586,1875.748Z" transform="translate(-305.565 -1874.662)"/>
      <ellipse id="Ellipse_14" data-name="Ellipse 14" cx="1.254" cy="1.254" rx="1.254" ry="1.254" transform="translate(3.444 0.924)"/>
      <ellipse id="Ellipse_15" data-name="Ellipse 15" cx="0.789" cy="0.882" rx="0.789" ry="0.882" transform="translate(3.909 1.296)" fill="#fff"/>
    </g>
  </g>
</svg>
