<svg xmlns="http://www.w3.org/2000/svg" width="117" height="74" viewBox="0 0 117 74">
  <g id="Group_130" data-name="Group 130" transform="translate(-376 -1539)">
    <g id="Group_76" data-name="Group 76" transform="translate(1 228)">
      <path id="Path_65" data-name="Path 65" d="M15,0h87a15,15,0,0,1,15,15V59a15,15,0,0,1-15,15H15A15,15,0,0,1,0,59V15A15,15,0,0,1,15,0Z" transform="translate(375 1311)" fill="#fff"/>
    </g>
    <g id="Group_74" data-name="Group 74" transform="translate(390.029 1569)">
      <path id="Path_77" data-name="Path 77" d="M-3.646,1629.3l2.157,5.9,2.309-7.077H2.106l-3.1,8.4v4.541H-2.208v-4.541l-2.763-7.228Z" transform="translate(4.971 -1628.13)" fill="#fe0000"/>
      <path id="Path_78" data-name="Path 78" d="M21.966,1650.013l.492,1.1s1.116-.973,1.758-.463.51,2.059.51,2.059a2.116,2.116,0,0,0-1.549-.285c-.979.153-1.539,1.356-1.631,2.039s-.122,2.273.866,2.966a1.933,1.933,0,0,0,2.181,0,3.273,3.273,0,0,0,.408-.418v.659h.884v-5.082a5.08,5.08,0,0,0-.426-2.222,2.041,2.041,0,0,0-2.059-.765A6.671,6.671,0,0,0,21.966,1650.013Z" transform="translate(-15.456 -1644.677)"/>
      <path id="Path_79" data-name="Path 79" d="M122.374,1650.4l1.657,3.7-1.769,4.188h1.187l1.075-3.09,1.187,3.09H126.9l-1.747-4.188,1.747-3.7h-1.187l-1.052,2.732-1.1-2.732Z" transform="translate(-93.202 -1645.31)"/>
      <path id="Path_81" data-name="Path 81" d="M77.243,1633.121v11.873h-.782l-.292-.543a2.08,2.08,0,0,1-2.054.636c-1.206-.358-1.67-1.868-1.762-2.981s-.026-3.18.822-4.253a2.331,2.331,0,0,1,2.292-.888,2.354,2.354,0,0,1,.583.225v-4.068Z" transform="translate(-54.668 -1631.981)"/>
      <path id="Path_82" data-name="Path 82" d="M47.846,1649.748v8.031h1.12v-6.606a1.237,1.237,0,0,1,1.1-.425c.806.022.963.381.963,1.635v5.4h1.12v-6.606a1.372,1.372,0,0,0-.784-1.276c-.873-.493-2.4.47-2.4.47v-.618Z" transform="translate(-35.783 -1644.811)"/>
      <path id="Path_83" data-name="Path 83" d="M28.784,1667.108c0,.336,0,2.5,0,2.5a1.254,1.254,0,0,1-1.622,0,1.78,1.78,0,0,1-.448-1.382,2.611,2.611,0,0,1,.275-1.122C27.473,1666.251,28.783,1666.772,28.784,1667.108Z" transform="translate(-19.473 -1657.845)" fill="#fff"/>
      <path id="Path_84" data-name="Path 84" d="M28.277,1667.674c.01.255-.051,5.514-.051,5.514a1.182,1.182,0,0,1-1.875-.428,4.947,4.947,0,0,1-.479-2.67,5.413,5.413,0,0,1,.347-1.794C27.053,1666.665,28.266,1667.419,28.277,1667.674Z" transform="translate(-6.949 -1661.305)" fill="#fff"/>
      <g id="Group_70" data-name="Group 70" transform="translate(23.864 4.938)">
        <path id="Path_80" data-name="Path 80" d="M100.744,1654.039h3.2v-1.456a3.478,3.478,0,0,0-.918-2.4c-.941-.806-2.54-.553-3.136,1.183a8.461,8.461,0,0,0,0,5.035,2.334,2.334,0,0,0,1.935,1.389,7.606,7.606,0,0,0,1.988-.184v-.848a4.326,4.326,0,0,1-2.171-.11,2.083,2.083,0,0,1-.9-1.488A3.973,3.973,0,0,1,100.744,1654.039Z" transform="translate(-99.511 -1649.748)"/>
        <path id="Path_85" data-name="Path 85" d="M105.14,1656.032h1.937a8.722,8.722,0,0,0-.114-1.069c-.077-.5-.166-1.056-.663-1.225,0,0-.733-.172-.914.734S105.14,1656.032,105.14,1656.032Z" transform="translate(-103.854 -1652.817)" fill="#fff"/>
      </g>
    </g>
    <g id="Group_75" data-name="Group 75" transform="translate(427.937 1564)">
      <path id="Path_89" data-name="Path 89" d="M159.956,2012.99v24.169h44.684l7.307-11.944-7.307-12.225Z" transform="translate(-159.956 -2012.99)" fill="#fecb00"/>
      <path id="Path_90" data-name="Path 90" d="M170.415,2022.218v19.813h40.89l5.792-9.875-5.792-9.84Z" transform="translate(-167.798 -2020.11)" fill="#fff"/>
    </g>
    <g id="Group_73" data-name="Group 73" transform="translate(436.616 1571)">
      <path id="Path_87" data-name="Path 87" d="M47.846,1649.574v5.654h.934v-3.8s.831-1.146,1.6-1.144,1.135.261,1.135,1.144v3.8h.965V1651.1a1.646,1.646,0,0,0-1.43-1.526,2.338,2.338,0,0,0-2.271.827v-.827Z" transform="translate(-32.559 -1646.902)"/>
      <g id="Group_72" data-name="Group 72" transform="translate(21.378 2.672)">
        <path id="Path_80-2" data-name="Path 80" d="M100.6,1652.756h3.86v-1.02a1.966,1.966,0,0,0-1.024-1.68,2.7,2.7,0,0,0-3.5.829,3.859,3.859,0,0,0,0,3.53,2.511,2.511,0,0,0,2.328,1.035,3.572,3.572,0,0,0,2.084-.861l-.408-.329a3.486,3.486,0,0,1-2.15.425,1.489,1.489,0,0,1-1.094-1.147A2.828,2.828,0,0,1,100.6,1652.756Z" transform="translate(-99.511 -1649.748)"/>
      </g>
      <path id="Path_80-3" data-name="Path 80" d="M100.935,1653h3.7v-1.1a2.151,2.151,0,0,0-1.061-1.815,2.731,2.731,0,0,0-3.623.9,4.331,4.331,0,0,0,0,3.815,2.912,2.912,0,0,0,2.235,1.052,5.284,5.284,0,0,0,2.245-.713l-.64-.611s-.836.908-1.6.611a2.137,2.137,0,0,1-1.251-1.279A1.989,1.989,0,0,1,100.935,1653Z" transform="translate(-78.159 -1647.99)" fill="none"/>
      <path id="Path_85-2" data-name="Path 85" d="M105.1,1655.137h2.98a2.082,2.082,0,0,0-.293-.913,1.28,1.28,0,0,0-1.1-.689,1.347,1.347,0,0,0-1.257.6C105,1654.844,105.1,1655.137,105.1,1655.137Z" transform="translate(-82.645 -1650.222)" fill="#fff"/>
      <path id="Path_86" data-name="Path 86" d="M202.913,1767.375h1.164v-6.812l2.183,5.269h.64l2.183-5.269v6.812h1.077v-8.326h-1.514l-2.038,5.153-2.154-5.153h-1.543Z" transform="translate(-202.913 -1759.048)"/>
      <path id="Path_88" data-name="Path 88" d="M316.586,1875.748h1.12l1.68,4.063,1.366-4.063H321.8l-1.926,5.362s-.426,2.048-1.164,2.384a4.285,4.285,0,0,1-1.859.213v-.784s1.249.1,1.565-.337a1.9,1.9,0,0,0,.294-1.813C318.423,1880.147,316.586,1875.748,316.586,1875.748Z" transform="translate(-289.481 -1873.076)"/>
      <ellipse id="Ellipse_14" data-name="Ellipse 14" cx="3.083" cy="3.083" rx="3.083" ry="3.083" transform="translate(8.471 2.273)"/>
      <ellipse id="Ellipse_15" data-name="Ellipse 15" cx="1.941" cy="2.17" rx="1.941" ry="2.17" transform="translate(9.613 3.187)" fill="#fff"/>
    </g>
  </g>
</svg>
